<svg xmlns="http://www.w3.org/2000/svg" viewBox="0 0 512 512"><path fill="#ffda44" d="M144.7 486.6C178.4 502.9 216.1 512 256 512s77.6-9.1 111.3-25.4L389.6 256 367.3 25.4C333.6 9.1 295.9 0 256 0s-77.6 9.1-111.3 25.4L122.4 256l22.3 230.6z"/><path fill="#d80027" d="M367.3 486.6a256 256 0 0 0 0-461.2v461.2z"/><path fill="#0052b4" d="M144.7 486.6V25.4a256 256 0 0 0 0 461.2z"/><path fill="#d80027" d="M256 345v-89h66.8v33.4c0 5.8-11.1 27-38.6 44.5-10.4 6.6-21.2 8.8-28.2 11.1zm-66.8-155.8H256V256h-66.8z"/><path fill="#ff9811" d="M289.4 167a22.3 22.3 0 0 0-33.4-19.3 22.1 22.1 0 0 0-11.1-3c-12.3 0-22.3 10-22.3 22.3H167v111.3c0 41.4 32.9 65.4 58.7 77.8a22.1 22.1 0 0 0-3 11.2 22.3 22.3 0 0 0 33.3 19.3 22.1 22.1 0 0 0 11.1 3 22.3 22.3 0 0 0 19.2-33.5c25.8-12.4 58.7-36.4 58.7-77.8V167h-55.6zm22.3 111.3c0 5.8 0 23.4-27.5 40.9a136.5 136.5 0 0 1-28.2 13.3c-7-2.4-17.8-6.7-28.2-13.3-27.5-17.5-27.5-35.1-27.5-41v-77.9h111.4v78z"/></svg>