<svg xmlns="http://www.w3.org/2000/svg" viewBox="0 0 512 512"><path fill="#d80027" d="M367.3 25.4C333.6 9.1 295.9 0 256 0s-77.6 9.1-111.3 25.4L122.4 256l22.3 230.6C178.4 502.9 216.1 512 256 512s77.6-9.1 111.3-25.4L389.6 256 367.3 25.4z"/><path fill="#333" d="M144.7 25.4a256 256 0 0 0 0 461.2V25.4z"/><path fill="#496e2d" d="M367.3 25.4v461.2a256 256 0 0 0 0-461.2z"/><g fill="#ffda44"><path d="M256 167a89 89 0 1 0 0 178 89 89 0 0 0 0-178zm0 144.7a55.7 55.7 0 1 1 0-111.4 55.7 55.7 0 0 1 0 111.4z"/><path d="M256 222.6c-12.3 0-22.3 10-22.3 22.3v33.4h44.6v-33.4c0-12.3-10-22.3-22.3-22.3z"/></g></svg>