<svg xmlns="http://www.w3.org/2000/svg" viewBox="0 0 512 512"><path fill="#0052b4" d="M0 256a257.1 257.1 0 0 0 5.1 51.2L256 322.8l250.9-15.6a257 257 0 0 0 0-102.4L256 189.2 5.1 204.8A257.1 257.1 0 0 0 0 256z"/><path fill="#eee" d="M506.9 307.2H5a256 256 0 0 0 501.8 0z"/><path fill="#333" d="M5.1 204.8H507a256 256 0 0 0-501.8 0z"/><path fill="#ffda44" d="M367.3 204.8H144.7l45.5-21.4-24.2-44 49.3 9.4 6.3-49.9 34.4 36.7L290.4 99l6.3 50 49.3-9.5-24.2 44z"/><path fill="#a2001d" d="M0 256a256 256 0 0 0 256 256L51.2 102.4A254.9 254.9 0 0 0 0 256zm256 256a256 256 0 0 0 204.8-409.6L256 512z"/></svg>