<svg xmlns="http://www.w3.org/2000/svg" viewBox="0 0 512 512"><path fill="#0052b4" d="M512 256a256 256 0 0 1-512 0L256 0a256 256 0 0 1 256 256z"/><g fill="#eee"><path d="M256 0zm-.7 256h.7v-.7l-.7.7z"/><path d="M256 133.6V0A256 256 0 0 0 0 256h133.6v-75.2l75.2 75.2h46.5l.7-.7v-46.5l-75.2-75.2H256z"/></g><g fill="#d80027"><path d="M129.5 33.4a257.2 257.2 0 0 0-96.1 96.1V256h66.8V100.2H256V33.4H129.5z"/><path d="M256 224.5l-91-91h-31.4L256 256v-31.5z"/></g><path fill="#496e2d" d="M445.2 256zm-155.8 0z"/><path fill="#eee" d="M433 293.5a62.4 62.4 0 0 0 12.2-37.5V144.7a55.4 55.4 0 0 1-33.4 11.1 55.6 55.6 0 0 1-44.5-22.2 55.6 55.6 0 0 1-44.5 22.2 55.4 55.4 0 0 1-33.4-11.1V256c0 15 5 27.3 12.3 37.5h131.2z"/><path fill="#ff9811" d="M409.8 235.4a91 91 0 0 0 6.3-27.6c0-10.1-13.2-18.3-13.2-18.3s-13.2 8.2-13.2 18.3a91 91 0 0 0 6.3 27.6l-7.6 17.1a38.3 38.3 0 0 0 29 0l-7.6-17.1zm-51.5-55.6a91 91 0 0 0-27 8.3c-8.8 5-9.3 20.5-9.3 20.5s13.7 7.4 22.4 2.3c5.5-3.1 15-11.8 20.8-19.2l18.6-2a38.4 38.4 0 0 0-4.7-14 38.4 38.4 0 0 0-9.7-11.1l-11.1 15.2zM335.9 252a91 91 0 0 0 20.7 19.3c8.8 5 22.5-2.3 22.5-2.3s-.6-15.5-9.3-20.5a91 91 0 0 0-27-8.4L331.7 225a38.4 38.4 0 0 0-9.7 11 38.4 38.4 0 0 0-4.8 14l18.7 2z"/><path fill="#338af3" d="M299 289.4c20.7 33.3 68.3 44.5 68.3 44.5s47.6-11.2 68.4-44.5H298.9z"/></svg>