<svg xmlns="http://www.w3.org/2000/svg" viewBox="0 0 512 512"><circle cx="256" cy="256" r="256" fill="#eee"/><path fill="#0052b4" d="M380.2 32.1A256 256 0 0 0 0 256l178-89L380.3 32zM0 256.1a256 256 0 0 0 380.2 223.8L178.1 345 0 256z"/><path fill="#d80027" d="M401.5 45.4A256.3 256.3 0 0 0 380.2 32L0 256l380.2 224a256.7 256.7 0 0 0 21.3-13.3L43.8 256 401.5 45.4z"/><path fill="#a2001d" d="M445.2 246.5h-30.5c8-9.6 7.5-23.7-1.5-32.7a24.2 24.2 0 0 0 0-34.2l-.5.5a25 25 0 0 0 .5-34.8l-137 137a23.9 23.9 0 0 0 34 0l2.6-2.5 65.6-6v28.3h22.3v-30.2l33.4-3 11.1-22.4z"/><path fill="#ffda44" d="M278.3 311.7L256 300.5l22.3-11.1H423v22.3z"/></svg>