<svg xmlns="http://www.w3.org/2000/svg" viewBox="0 0 512 512"><path fill="#d80027" d="M512 256c0-31.3-5.6-61.3-16-89l-240-11.2L16 167a255.5 255.5 0 0 0 0 178l240 11.2L496 345c10.4-27.7 16-57.7 16-89z"/><path fill="#6da544" d="M256 512a256 256 0 0 0 240-167H16a256 256 0 0 0 240 167z"/><path fill="#338af3" d="M16 167h480a256 256 0 0 0-480 0z"/><g fill="#eee"><path d="M261.6 328.3a72.3 72.3 0 1 1 34.4-136 89 89 0 1 0 0 127.3 72 72 0 0 1-34.4 8.7z"/><path d="M317.2 206l9.6 26.9 25.8-12.3-12.2 25.8 26.9 9.6-27 9.6 12.3 25.8-25.8-12.3-9.6 27-9.6-27-25.8 12.3 12.3-25.8-27-9.6 27-9.6-12.3-25.8 25.8 12.3z"/></g></svg>