<svg xmlns="http://www.w3.org/2000/svg" viewBox="0 0 512 512"><circle cx="256" cy="256" r="256" fill="#eee"/><path fill="#ffda44" d="M256 0A255.8 255.8 0 0 0 40 118.5l347.2 357.3A256 256 0 0 0 256 0z"/><path fill="#0052b4" d="M512 256a255 255 0 0 0-66.8-172.4v344.8A255 255 0 0 0 512 256zM319.8 481.9h26.8l8.3-25.6 8.3 25.5h13.4a255.8 255.8 0 0 0 24-14.5l-356-355.8a256 256 0 0 0-16 26.7l3.2 9.7h26.8L37 163.7l8.3 25.5-21.7-15.8-13 9.5a256 256 0 0 0 330.6 314.6l-21.4-15.6zM57 244.9l8.3-25.5-21.7-15.8h26.8l8.3-25.5 8.3 25.5h26.8l-21.7 15.7 8.3 25.5-21.7-15.7L57 244.9zm55.2 55.6l8.3-25.5-21.7-15.7h26.8l8.3-25.6 8.3 25.5H169L147.4 275l8.3 25.5-21.7-15.8-21.7 15.8zm55.2 55.7l8.3-25.5-21.7-15.8h27l8.3-25.5 8.3 25.5h26.8l-21.7 15.7 8.3 25.5-21.7-15.7-21.7 15.8zm77 39.9l-21.7 15.7 8.2-25.5-21.7-15.7h26.9l8.2-25.6 8.3 25.5h26.8L258 386.3l8.3 25.5-21.7-15.7zm33.5 71.4l8.3-25.5-21.7-15.8h26.8l8.3-25.5 8.3 25.5h26.8L313 442l8.3 25.5-21.7-15.8-21.7 15.8z"/></svg>