<svg xmlns="http://www.w3.org/2000/svg" viewBox="0 0 512 512"><path fill="#ffda44" d="M367.3 25.4C333.6 9.1 295.9 0 256 0s-77.6 9.1-111.3 25.4L122.4 256l22.3 230.6C178.4 502.9 216.1 512 256 512s77.6-9.1 111.3-25.4L389.6 256 367.3 25.4z"/><path fill="#0052b4" d="M144.7 25.4a256 256 0 0 0 0 461.2V25.4zm222.6 0v461.2a256 256 0 0 0 0-461.2z"/><path fill="#333" d="M334 155.8l14.8 7.5-14.9-7.5-15-7.4c-.8 1.8-20.3 41.4-23.5 102h-22.7v-94.6L256 133.6l-16.7 22.2v94.6h-22.7a278.3 278.3 0 0 0-23.6-102l-29.8 14.9c.2.4 20.5 41.7 20.5 103.8v16.7h55.6v94.6h33.4v-94.6h55.6v-16.7c0-32 5.6-58.6 10.3-75.1 5-18 10.2-28.6 10.3-28.7l-15-7.5z"/></svg>