<svg xmlns="http://www.w3.org/2000/svg" viewBox="0 0 512 512"><circle cx="256" cy="256" r="256" fill="#eee"/><path fill="#d80027" d="M411.9 52.9a256.1 256.1 0 0 0-311.8 0L256 208.8 411.9 52.9zM256 303.2L100.1 459.1a256.1 256.1 0 0 0 311.8 0L256 303.2z"/><path fill="#6da544" d="M208.8 256L52.9 100.1a256.1 256.1 0 0 0 0 311.8L208.8 256zm94.4 0l155.9 155.9a256.1 256.1 0 0 0 0-311.8L303.2 256z"/><circle cx="256" cy="256" r="111.3" fill="#eee"/><path fill="#d80027" d="M256 178l9.6 16.8H285l-9.6 16.7 9.6 16.7h-19.3l-9.6 16.7-9.6-16.7H227l9.6-16.7-9.6-16.7h19.3zm-49 78l9.6 16.7H236l-9.6 16.7 9.6 16.7h-19.3l-9.6 16.7-9.6-16.7H178l9.6-16.7-9.6-16.7h19.3zm98 0l9.6 16.7H334l-9.6 16.7 9.6 16.7h-19.3l-9.6 16.7-9.6-16.7H276l9.6-16.7-9.6-16.7h19.3z"/></svg>