<svg xmlns="http://www.w3.org/2000/svg" viewBox="0 0 512 512"><circle cx="256" cy="256" r="256" fill="#eee"/><path fill="#333" d="M34.3 128c-11.5 20-20 41-25.7 62.2l428 247.2a256.2 256.2 0 0 0 41-53.4L34.4 128z"/><path fill="#ffda44" d="M384 34.3A256 256 0 0 0 75.4 74.6l428 247.1A256 256 0 0 0 384 34.3zM128 477.7a256 256 0 0 0 308.6-40.3L8.6 190.2A256 256 0 0 0 128 477.7z"/><g fill="#d80027"><path d="M328.3 228.2a72.3 72.3 0 1 1-136-34.4 89 89 0 1 0 127.3 0 72 72 0 0 1 8.7 34.4z"/><path d="M239.3 144.7h33.4v167h-33.4z"/><path d="M311.6 178H200.4c0 7.8 6.6 14 14.3 14h-.4a14 14 0 0 0 13.9 14 14 14 0 0 0 13.9 13.8h27.8a14 14 0 0 0 14-13.9 14 14 0 0 0 13.8-13.9h-.4c7.6 0 14.3-6.2 14.3-13.9zM178.1 322.9h155.8v33.4H178.1z"/><path d="M289.4 333.9h66.8v33.4h-66.8zm-133.6 0h66.8v33.4h-66.8z"/></g></svg>