<svg xmlns="http://www.w3.org/2000/svg" viewBox="0 0 512 512"><circle cx="256" cy="256" r="256" fill="#eee"/><path fill="#ffda44" d="M75 75A255.4 255.4 0 0 0 .7 275.2L275.2.7A255.4 255.4 0 0 0 75 75z"/><path fill="#0052b4" d="M91.4 452A256 256 0 0 0 452.1 91.5L91.4 452.1z"/><path fill="#333" d="M255 245.7l22.1-12-22-12a78 78 0 0 0-65-65l-12-22-12 22a78 78 0 0 0-65 65l-22 12 22 12a78 78 0 0 0 65 65l12 22.1 12-22a78 78 0 0 0 65-65.1zm-77 32.6a44.5 44.5 0 1 1 0-89 44.5 44.5 0 0 1 0 89z"/><path fill="#d80027" d="M178 200.3l9.7 16.7H207l-9.6 16.7 9.6 16.7h-19.3l-9.6 16.7-9.7-16.7h-19.2l9.6-16.7-9.6-16.7h19.2z"/></svg>