<svg xmlns="http://www.w3.org/2000/svg" viewBox="0 0 512 512"><path fill="#d80027" d="M111.7 467.5a255.6 255.6 0 0 0 288.6 0L256 445.2l-144.3 22.3zm288.6-423a255.6 255.6 0 0 0-288.6 0L256 66.8l144.3-22.3z"/><path fill="#d80027" d="M111.7 467.5a255.6 255.6 0 0 0 288.6 0L256 445.2l-144.3 22.3zm288.6-423a255.6 255.6 0 0 0-288.6 0L256 66.8l144.3-22.3z"/><path fill="#0052b4" d="M511.3 239.3c-6-79-54-155.8-111-194.8H111.7A255.8 255.8 0 0 0 .5 239.3L256 256l255.3-16.7zM.5 272.7c5.3 81 48 151.6 111.2 194.8h288.6a255.8 255.8 0 0 0 111.2-194.8L256 256 .5 272.7z"/><path fill="#d80027" d="M511.3 239.3H272.7v-206h-33.4v206H.5A260.1 260.1 0 0 0 0 256c0 5.6.2 11.2.5 16.7h238.8v206h33.4v-206h238.8a260.8 260.8 0 0 0-.2-33.4z"/><path fill="#eee" d="M100.2 256L256 158l155.8 98L256 354z"/><path fill="#6da544" d="M167 300.5h200.3l-44.5-66.8-22.3 22.3-22.2-11.1-22.3 33.4h-44.5L189.2 256z"/><path fill="#ffda44" d="M256 189.2l5.5 17h18l-14.6 10.5 5.6 17-14.5-10.5-14.5 10.5 5.6-17-14.5-10.5h17.9z"/><path fill="#d80027" d="M256 130L55.7 256 256 382l200.3-126L256 130zM118.4 256L256 169.5 393.6 256 256 342.5 118.4 256z"/></svg>