<svg xmlns="http://www.w3.org/2000/svg" viewBox="0 0 512 512"><path fill="#ffda44" d="M75 437A256 256 0 0 1 437 75s68 230-32 330-330 32-330 32z"/><path fill="#ff9811" d="M75 437A256 256 0 0 0 437 75L75 437z"/><path fill="#eee" d="M400.8 144.7v-44.5h-85.3l-6.5 6.5c-23.2 23.2-19.3 50.2-16.5 70 2.7 18.3 3 25.3-3.8 32.1-6.8 6.9-13.9 6.5-32.2 3.9-19.7-2.9-46.8-6.8-70 16.4-23.2 23.2-19.3 50.3-16.4 70 2.6 18.3 3 25.4-3.9 32.2-6.8 6.8-13.8 6.5-32.1 3.8-7.2-1-14.5-2-22.4-2.2l-.5 44.6c5 0 10.6.8 16.5 1.7 7 1 15 2.2 23.5 2.2 8.7 0 18-1.3 27-5.2v35.6H245v-33.4h-33.4v-22.2h22.3v-33.4H216c.8-10.8-.7-21.2-2-30-2.6-18.4-3-25.4 3.9-32.2 6.8-6.8 13.8-6.5 32.2-3.8 14.3 2 32.6 4.7 50.4-3v35.6h66.8V256H334v-22.3h22.3v-33.4h-17.8a130 130 0 0 0-2-30c-1.8-12.8-2.5-20-.4-25.6h64.7z"/></svg>