<svg xmlns="http://www.w3.org/2000/svg" viewBox="0 0 512 512"><circle cx="256" cy="256" r="256" fill="#eee"/><path fill="#a2001d" d="M105.7 237.4L78 187l27.8-49.7 27.9 49.7zm-55.6 0L22.3 187 50 137.3 77.9 187zm55.6 137.3L78 324.2l27.8-49.6 27.9 49.6zm-55.6 0l-27.8-50.5L50 274.6l27.8 49.6zm83.5-325l-8-14a256.7 256.7 0 0 0-39.5 28.8l19.6 35.7 27.9-50.5zm-27.9 362.1L86 447.3a256.7 256.7 0 0 0 39.6 29l8-14.8-27.8-49.7z"/><path fill="#6da544" d="M155.8 322.8v168.8A256 256 0 0 0 496.1 345l-340.3-22.2z"/><path fill="#a2001d" d="M496 345A256 256 0 0 0 155.8 20.3V345h340.4z"/></svg>