<svg xmlns="http://www.w3.org/2000/svg" viewBox="0 0 512 512"><path fill="#0052b4" d="M512 256c0-87.9-44.3-165.4-111.7-211.5L256 33.4 111.7 44.5A255.7 255.7 0 0 0 0 256c0 87.9 44.3 165.4 111.7 211.5L256 478.6l144.3-11.1A255.7 255.7 0 0 0 512 256z"/><path fill="#a2001d" d="M400.3 44.5A255.6 255.6 0 0 0 256 0a254.8 254.8 0 0 0-144.3 44.5h288.6zm-288.6 423a255.6 255.6 0 0 0 288.6 0H111.7z"/><circle cx="256" cy="256" r="122.4" fill="#eee"/><circle cx="256" cy="256" r="100.2" fill="#6da544"/><circle cx="256" cy="256" r="66.8" fill="#eee"/><path fill="#0052b4" d="M256 239.3L219.8 256v27.8l36.2 22.3 36.2-22.3V256z"/><path fill="#ffda44" d="M219.8 222.6h72.4V256h-72.4z"/></svg>