<svg xmlns="http://www.w3.org/2000/svg" viewBox="0 0 512 512"><path fill="#eee" d="M0 256a256 256 0 0 1 512 0H0z"/><path fill="#0052b4" d="M189.2 242l-14 14h14zm133.6 0v14h14zM7.4 194.8A256.5 256.5 0 0 0 0 256h80.8l61.2-61.2H7.4zm362.6 0l61.2 61.2H512a257 257 0 0 0-7.4-61.2H370z"/><path fill="#d80027" d="M354.3 194.8h-31.5L384 256h31.5zm-165 31.5v-31.5L128 256h31.5z"/><path fill="#0052b4" d="M120 39.1a257.1 257.1 0 0 0-30.1 22.1H142l-22-22zm302 22.1a257 257 0 0 0-30-22l-22 22h52z"/><g fill="#d80027"><path d="M289.4 161.4h204.5c-9.6-24.3-23-46.8-39.2-66.8H289.4V2.2A258.5 258.5 0 0 0 256 0c-11.3 0-22.5.7-33.4 2.2v92.4H57.3A255.8 255.8 0 0 0 18 161.4h204.5V256h66.8v-94.6z"/><path d="M189.2 61.2l-38.6-38.6a255.2 255.2 0 0 0-20.8 10.6l28 28h31.4zm133.6 0l38.6-38.6a255 255 0 0 0-22.6-8.9l-16 16v31.5z"/></g><path fill="#eee" d="M512 256a256 256 0 0 1-512 0h512z"/><path fill="#0052b4" d="M469.3 288.6c-21.3 0-21.3-19.5-42.6-19.5-21.4 0-21.4 19.5-42.7 19.5s-21.3-19.5-42.7-19.5c-21.3 0-21.3 19.5-42.6 19.5s-21.4-19.5-42.7-19.5c-21.3 0-21.3 19.5-42.7 19.5-21.3 0-21.3-19.5-42.6-19.5-21.4 0-21.4 19.5-42.7 19.5s-21.3-19.5-42.7-19.5c-21.3 0-21.3 19.5-42.6 19.5S21.3 269.4.3 269.3a256.2 256.2 0 0 0 4.1 34.4c17 2.5 18.5 19.2 38.3 19.2 21.3 0 21.3-19.5 42.6-19.5 21.4 0 21.4 19.5 42.7 19.5s21.3-19.5 42.7-19.5c21.3 0 21.3 19.5 42.6 19.5 21.4 0 21.4-19.5 42.7-19.5 21.3 0 21.3 19.5 42.7 19.5s21.3-19.5 42.6-19.5c21.4 0 21.4 19.5 42.7 19.5s21.3-19.5 42.7-19.5c21.3 0 21.3 19.5 42.6 19.5 19.8 0 21.3-16.7 38.3-19.2a256.5 256.5 0 0 0 4-34.4c-21 .2-21 19.5-42.3 19.5zM426.7 336c-21.4 0-21.4 19.5-42.7 19.5S362.7 336 341.3 336c-21.3 0-21.3 19.5-42.6 19.5-21.4 0-21.4-19.5-42.7-19.5-21.3 0-21.3 19.5-42.7 19.5-21.3 0-21.3-19.5-42.6-19.5-21.4 0-21.4 19.5-42.7 19.5S106.7 336 85.3 336C64 336 64 355.4 42.7 355.4c-15.3 0-19.6-10-28.7-15.6A254.7 254.7 0 0 0 37.3 389c1.6.3 3.4.5 5.4.5C64 389.6 64 370 85.3 370c21.4 0 21.4 19.5 42.7 19.5s21.3-19.5 42.7-19.5c21.3 0 21.3 19.5 42.6 19.5 21.4 0 21.4-19.5 42.7-19.5 21.3 0 21.3 19.5 42.7 19.5S320 370 341.3 370c21.4 0 21.4 19.5 42.7 19.5s21.3-19.5 42.7-19.5c21.3 0 21.3 19.5 42.6 19.5 2 0 3.8-.2 5.4-.5a254.8 254.8 0 0 0 23.3-49.3c-9 5.7-13.4 15.6-28.7 15.6-21.3 0-21.3-19.5-42.6-19.5z"/><path fill="#eee" d="M511.9 248zM0 250v-2 2zm-.1 6zm0 0c0 4.7.1 9.3.4 13.9 21 .2 21 19.5 42.3 19.5 21.3 0 21.3-19.5 42.6-19.5 21.4 0 21.4 19.5 42.7 19.5s21.3-19.5 42.7-19.5c21.3 0 21.3 19.5 42.6 19.5 21.4 0 21.4-19.5 42.7-19.5 21.3 0 21.3 19.5 42.7 19.5s21.3-19.5 42.6-19.5c21.4 0 21.4 19.5 42.7 19.5s21.3-19.5 42.7-19.5c21.3 0 21.3 19.5 42.6 19.5 21.2 0 21.4-19.3 42.3-19.5.3-4.6.4-9.2.4-13.9H0zm512-6z"/><path fill="#0052b4" d="M426.7 402.7c-21.4 0-21.4 19.5-42.7 19.5s-21.3-19.5-42.7-19.5c-21.3 0-21.3 19.5-42.6 19.5-21.4 0-21.4-19.5-42.7-19.5-21.3 0-21.3 19.5-42.7 19.5-21.3 0-21.3-19.5-42.6-19.5-21.4 0-21.4 19.5-42.7 19.5s-21.3-19.5-42.7-19.5c-14.7 0-19.3 9.3-27.7 15a257 257 0 0 0 82.2 66.4l116.2-5.8 116.2 5.8a257.1 257.1 0 0 0 82.2-66.3c-8.4-5.8-13-15-27.7-15z"/><path fill="#ffda44" d="M398 408.8l-77.9 15-9.9-78.8-54.2 58-54.2-58-10 78.7-77.8-14.9 38.2 69.5-12.5 5.8C174.7 502 214.1 512 256 512s81.4-10 116.3-27.9l-12.5-5.8 38.2-69.5z"/></svg>