<svg xmlns="http://www.w3.org/2000/svg" viewBox="0 0 512 512"><path fill="#ffda44" d="M483.6 138.6A255.8 255.8 0 0 0 373.4 28.4L193 193 28.4 373.4a255.8 255.8 0 0 0 110.2 110.2L319 319l164.6-180.4z"/><path fill="#d80027" d="M75 437a257.6 257.6 0 0 0 34.2 28.8l356.6-356.6A257.5 257.5 0 0 0 437 75a257.6 257.6 0 0 0-34.2-28.8L46.2 402.8A257.5 257.5 0 0 0 75 437z"/><path fill="#338af3" d="M75 75a256.1 256.1 0 0 0-46.6 298.4l345-345A256.1 256.1 0 0 0 75 75zm362 362a256.1 256.1 0 0 0 46.6-298.4l-345 345A256.1 256.1 0 0 0 437 437z"/><path fill="#ffda44" d="M136.4 78l13.8 42.4H195l-36.1 26.3 13.8 42.5-36.2-26.3-36.1 26.3 13.8-42.5L78 120.4h44.7z"/></svg>