<svg xmlns="http://www.w3.org/2000/svg" viewBox="0 0 512 512"><circle cx="256" cy="256" r="256" fill="#eee"/><path fill="#0052b4" d="M480.9 133.6A256.7 256.7 0 0 0 322.8 8.8l-11.1 124.8h169.2zm-449.8 0h169.2l-11-124.8A256.6 256.6 0 0 0 31 133.6z"/><path fill="#6da544" d="M311.7 256v122.4h169.2c19.8-36.3 31.1-78 31.1-122.4H311.7zm-111.4 0H0c0 44.4 11.3 86 31.1 122.4h169.2V256z"/><path fill="#ffda44" d="M31.1 378.4a256.7 256.7 0 0 0 158.1 124.8l11.1-109.1-169.2-15.7zm291.7 124.8a256.6 256.6 0 0 0 158-124.8l-169.1 15.7 11 109zm-11.1-109.1l169.2-15.7H311.7zm-111.4-15.7H31.1l169.2 15.7z"/><path fill="#d80027" d="M256 0a254 254 0 0 0-66.8 8.8v494.4a256.3 256.3 0 0 0 133.6 0V8.8A256.3 256.3 0 0 0 256 0z"/><path fill="#ffda44" d="M137.7 55.7l6.9 21.2H167L148.9 90l6.9 21.3-18.1-13.1-18 13.1 6.8-21.3-18-13h22.3z"/></svg>