<svg xmlns="http://www.w3.org/2000/svg" viewBox="0 0 512 512"><path fill="#0052b4" d="M512 256a256 256 0 0 1-512 0L256 0a256 256 0 0 1 256 256z"/><g fill="#eee"><path d="M256 0zm-.7 256h.7v-.7l-.7.7z"/><path d="M256 133.6V0A256 256 0 0 0 0 256h133.6v-75.2l75.2 75.2h46.5l.7-.7v-46.5l-75.2-75.2H256z"/></g><g fill="#d80027"><path d="M129.5 33.4a257.2 257.2 0 0 0-96.1 96.1V256h66.8V100.2H256V33.4H129.5z"/><path d="M256 224.5l-91-91h-31.4L256 256v-31.5z"/></g><path fill="#496e2d" d="M445.2 256zm-155.8 0z"/><path fill="#eee" d="M345 256l4.8 14.6H365l-12.4 9 4.7 14.6-12.4-9-12.4 9 4.8-14.6-12.4-9h15.3zm-63 26l13.7 7 10.9-10.8-2.4 15.1 13.6 7-15.1 2.4-2.4 15.1-7-13.6-15.1 2.4 10.8-10.9zm-26 63l14.6-4.7V325l9 12.4 14.6-4.8-9 12.4 9 12.4-14.6-4.7-9 12.4v-15.3zm26 63l7-13.6-10.8-10.9 15.1 2.4 7-13.6 2.4 15 15.1 2.5-13.6 7 2.4 15-10.9-10.8zm63 26l-4.7-14.5H325l12.4-9-4.8-14.6 12.4 9 12.4-9-4.7 14.6 12.4 9h-15.3zm63-26l-13.6-7-10.9 10.9 2.4-15.2-13.6-7 15-2.3 2.5-15.1 7 13.6 15-2.4-10.8 10.9zm26-63l-14.5 4.8V365l-9-12.4-14.6 4.7 9-12.4-9-12.4 14.6 4.8 9-12.4v15.3zm-26-63l-7 13.7 10.9 10.9-15.2-2.4-7 13.6-2.3-15.1-15.1-2.4 13.6-7-2.4-15.1 10.9 10.8z"/></svg>