<svg xmlns="http://www.w3.org/2000/svg" viewBox="0 0 512 512"><path fill="#ff9811" d="M0 44.5v423V256z"/><circle cx="256" cy="256" r="256" fill="#eee"/><path fill="#0052b4" d="M256 0A255.6 255.6 0 0 0 51.2 102.4h409.6A255.6 255.6 0 0 0 256 0zm0 512c83.8 0 158.1-40.2 204.8-102.4H51.2A255.6 255.6 0 0 0 256 512zM0 256a257.1 257.1 0 0 0 5.1 51.2H507a257.1 257.1 0 0 0 0-102.4H5A257.1 257.1 0 0 0 0 256z"/><path fill="#d80027" d="M75 75a256 256 0 0 0 0 362l181-181L75 75z"/><path fill="#eee" d="M103.6 189.2l16.6 51h53.6l-43.4 31.6 16.6 51-43.4-31.5-43.4 31.5 16.6-51-43.4-31.6H87z"/></svg>