<svg xmlns="http://www.w3.org/2000/svg" viewBox="0 0 512 512"><circle cx="256" cy="256" r="256" fill="#eee"/><path fill="#496e2d" d="M306 507c101.3-20 181-99.7 201-201H306v201zM5 306c20 101.3 99.7 181 201 201V306H5zm502-100A256.3 256.3 0 0 0 306 5v201h201zM206 5A256.3 256.3 0 0 0 5 206h201V5z"/><path fill="#ffda44" d="M239.3 306h-33.4v201a256.3 256.3 0 0 0 33.4 4.4V306.1zm0-100V.5a256.1 256.1 0 0 0-33.4 4.3v201h33.4z"/><path fill="#333" d="M272.7.6a258.6 258.6 0 0 0-33.4 0v205.3h33.4V.6zm-33.4 510.8a258.6 258.6 0 0 0 33.4 0V306.1h-33.4v205.3z"/><path fill="#ffda44" d="M206 239.3v-33.4H5a256 256 0 0 0-4.4 33.4h205.3zm100 0h205.4a256.2 256.2 0 0 0-4.3-33.4H306v33.4z"/><path fill="#333" d="M306 272.7h205.4a259.3 259.3 0 0 0 0-33.4H306.1v33.4zM.7 239.3a259.3 259.3 0 0 0 0 33.4H206v-33.4H.6z"/><circle cx="256" cy="256" r="122.4" fill="#d80027"/><path fill="#496e2d" d="M283.9 269.7c-9.1-18.3-21-36.7-21-36.7s.3-8.4.3-13.4a13.7 13.7 0 0 0-27.2-1.2 10.8 10.8 0 0 0-4.3 20.3 15.5 15.5 0 0 1 9.2-8.6 13.8 13.8 0 0 0 2.2 1.5l1.8.8s-6.5 18.3-6.5 28.2c0 27.6 18.2 36.1 18.2 36.1v.3l-9.1 9h18.2v-18l9 9c.2 0 17.3-11 9.2-27.2zM256 155.8l4.1 12.8h13.5l-10.9 7.9 4.2 12.7-10.9-7.9-10.8 8 4.1-12.8-10.9-8H252zM197.1 175l10.9 7.8 10.8-7.8-4.1 12.7 10.8 7.9h-13.4l-4.1 12.7-4.2-12.7h-13.4l10.9-7.9zm-36.4 50h13.4l4.2-12.7 4.1 12.7h13.4l-10.8 8 4.1 12.7-10.8-7.9-10.9 7.9 4.2-12.8zm0 62l10.9-8-4.2-12.7 10.9 7.9 10.8-7.9-4.1 12.8 10.8 7.9h-13.4l-4.1 12.7L174 287zm36.4 50l4.2-12.7-10.9-7.9h13.4l4.2-12.7 4.1 12.7h13.4l-10.8 7.9 4.1 12.7-10.8-7.8zm58.9 19.2l-4.1-12.8h-13.5l10.9-7.9-4.2-12.7 10.9 7.9 10.8-8-4.1 12.8 10.9 8H260zm58.9-19.2l-10.9-7.8-10.8 7.8 4.1-12.7-10.8-7.9h13.4l4.1-12.7 4.2 12.7h13.4l-10.9 7.9zm36.4-50h-13.4l-4.2 12.7-4.1-12.7h-13.4l10.8-8-4.1-12.7 10.8 7.9 10.9-7.9-4.2 12.8zm0-62l-10.9 8 4.2 12.7-10.9-7.9-10.8 7.9 4.1-12.8-10.8-7.9h13.4l4.1-12.7L338 225zm-36.4-50l-4.2 12.7 10.9 7.9h-13.4l-4.2 12.7-4.1-12.7h-13.4l10.8-7.9-4.1-12.7 10.8 7.8z"/></svg>