<svg xmlns="http://www.w3.org/2000/svg" viewBox="0 0 512 512"><path fill="#ffda44" d="M0 256a256 256 0 0 1 512 0l-256 22.3L0 256z"/><path fill="#d80027" d="M34.3 384a255.9 255.9 0 0 0 443.4 0L256 367.3 34.3 384z"/><path fill="#0052b4" d="M477.7 384A254.8 254.8 0 0 0 512 256H0c0 46.6 12.5 90.3 34.3 128h443.4z"/><circle cx="256" cy="256" r="89" fill="#ffda44"/><path fill="#338af3" d="M256 311.7c-30.7 0-55.7-25-55.7-55.7v-33.4a55.7 55.7 0 0 1 111.4 0V256c0 30.7-25 55.7-55.7 55.7z"/><path fill="#333" d="M345 122.4h-66.7a22.3 22.3 0 0 0-44.6 0H167a23 23 0 0 0 23 22.3h-.8c0 12.3 10 22.3 22.3 22.3 0 12.3 10 22.2 22.2 22.2h44.6c12.3 0 22.2-10 22.2-22.2 12.3 0 22.3-10 22.3-22.3h-.8a23 23 0 0 0 23-22.3z"/></svg>