<svg xmlns="http://www.w3.org/2000/svg" viewBox="0 0 512 512"><path fill="#eee" d="M25.4 144.7C9.1 178.4 0 216.1 0 256s9.1 77.6 25.4 111.3L256 389.6l230.6-22.3C502.9 333.6 512 295.9 512 256s-9.1-77.6-25.4-111.3L256 122.4 25.4 144.7z"/><path fill="#496e2d" d="M25.4 367.3a256 256 0 0 0 461.2 0H25.4z"/><path fill="#333" d="M25.4 144.7h461.2a256 256 0 0 0-461.2 0z"/><g fill="#d80027"><path d="M75 75a256 256 0 0 0 0 362l181-181L75 75zm247.8 181a78 78 0 0 1 61.2-76.1 78.2 78.2 0 0 0-16.7-1.8A78 78 0 1 0 384 332a78 78 0 0 1-61.2-76.1z"/><path d="M387.3 206l11 34h35.8l-29 21 11.1 34-29-21-28.9 21 11.1-34-29-21h35.8z"/></g></svg>