<svg xmlns="http://www.w3.org/2000/svg" viewBox="0 0 512 512"><path fill="#338af3" d="M233.7 233.7S75.1 437.1 75 437a256 256 0 0 0 437-181l-278.3-22.3z"/><path fill="#6da544" d="M233.7 256L75 75a256 256 0 0 1 437 181H233.7z"/><path fill="#d80027" d="M75 75a256 256 0 0 0 0 362l437-181L75 75z"/><path fill="#ffda44" d="M133.6 150.3c-49.1 0-89 40-89 89v33.4a89.1 89.1 0 0 0 178 0v-33.4c0-49-40-89-89-89zm55.6 122.4c0 24.9-16.4 46-39 53v-36.3l23.7-23.6-23.6-23.6v-19.6h-33.4V256l-23.6 23.6 23.6 23.6v22.6a55.7 55.7 0 0 1-39-53.1v-33.4a55.7 55.7 0 0 1 111.3 0v33.4z"/></svg>