<svg xmlns="http://www.w3.org/2000/svg" viewBox="0 0 512 512"><path fill="#ffda44" d="M256 0A256 256 0 1 1 0 256"/><path fill="#d80027" d="M250.4 113.8H469a257.4 257.4 0 0 0-52-57H250.4v57zm0 113.8h260a254.5 254.5 0 0 0-13-57h-247v57zM14.6 341.3h482.8a254.6 254.6 0 0 0 13-56.9H1.6a254.4 254.4 0 0 0 13 57zM95 455.1h322a257.4 257.4 0 0 0 52-56.9H43a257.4 257.4 0 0 0 52 57z"/><path fill="#4a1f63" d="M256 0A256 256 0 0 0 0 256h256V0z"/><path fill="#eee" d="M211.5 133.6v22.2h-11.2v-22.2h-22.2v22.2H167v-44.5h-44.6v44.5h-11v-22.2H89v22.2H78v-22.2H55.6v66.7h178v-66.7z"/></svg>