<svg xmlns="http://www.w3.org/2000/svg" viewBox="0 0 512 512"><circle cx="256" cy="256" r="256" fill="#eee"/><path fill="#d80027" d="M2.2 289.4c6 45.7 24 87.6 50.7 122.5l136.3-122.5H2.2zm220.4 220.4v-187L100.1 459a254.7 254.7 0 0 0 122.5 50.7zm0-507.6c-45.7 6-87.6 24-122.5 50.7l122.5 136.3V2.2zM2.2 222.6h187L53 100.1A254.7 254.7 0 0 0 2.2 222.6zM289.4 2.2v187L411.9 53A254.7 254.7 0 0 0 289.4 2.2zm220.4 220.4c-6-45.7-24-87.6-50.7-122.5L322.8 222.6h187zm-187 66.8L459 411.9a254.7 254.7 0 0 0 50.7-122.5h-187zm-33.4 220.4c45.7-6 87.6-24 122.5-50.7L289.4 322.8v187z"/><path fill="#496e2d" d="M459.1 411.9L303.2 256l155.9-155.9A258 258 0 0 0 411.9 53L256 208.8 100.1 52.9a258.5 258.5 0 0 0-25.1 22 258.3 258.3 0 0 0-22.1 25.2L208.8 256 52.9 411.9a258.2 258.2 0 0 0 47.2 47.2L256 303.2l155.9 155.9a258.7 258.7 0 0 0 25.1-22 258.6 258.6 0 0 0 22.1-25.2z"/><path fill="#eee" d="M289.4 509.8V289.4h220.4a258.2 258.2 0 0 0 0-66.8H289.4V2.2A258.5 258.5 0 0 0 256 0a258.7 258.7 0 0 0-33.4 2.2v220.4H2.2a258.4 258.4 0 0 0 0 66.8h220.4v220.4A258.5 258.5 0 0 0 256 512c11.3 0 22.5-.7 33.4-2.2z"/></svg>