<svg xmlns="http://www.w3.org/2000/svg" viewBox="0 0 512 512"><path fill="#ffda44" d="M0 256c0 31.3 5.6 61.3 16 89l240 22.3L496 345a255.4 255.4 0 0 0 .5-177L256 144.8 15.5 168.1C5.5 195.5 0 225.1 0 256z"/><path fill="#d80027" d="M256 512a256 256 0 0 0 240-167H16a256 256 0 0 0 240 167z"/><path fill="#6da544" d="M256 0A256 256 0 0 0 16 167h480A256 256 0 0 0 256 0z"/><circle cx="256" cy="256" r="122.4" fill="#0052b4"/><g fill="#ffda44"><path d="M256 161.2l22 68h71.7l-58 42 22.3 68.3-58-42.3-58 42.2 22.2-68.1-58-42H234z"/><path d="M344.1 273l-70-22.9 43.2-59.6-18-13L256 237l-43.3-59.7-18 13.1 43.3 59.7-70.1 22.7 6.9 21.2 70-22.8V345h22.3v-73.7l70.1 22.8z"/></g></svg>