<svg xmlns="http://www.w3.org/2000/svg" viewBox="0 0 512 512"><path fill="#0052b4" d="M512 256a256 256 0 0 1-512 0L256 0a256 256 0 0 1 256 256z"/><g fill="#eee"><path d="M256 0zm-.7 256h.7v-.7l-.7.7z"/><path d="M256 133.6V0A256 256 0 0 0 0 256h133.6v-75.2l75.2 75.2h46.5l.7-.7v-46.5l-75.2-75.2H256z"/></g><g fill="#d80027"><path d="M129.5 33.4a257.2 257.2 0 0 0-96.1 96.1V256h66.8V100.2H256V33.4H129.5z"/><path d="M256 224.5l-91-91h-31.4L256 256v-31.5z"/></g><path fill="#ffda44" d="M411.8 300.5v11.2h-89v-11.2h-33.4V345h22.3v11.2H423V345h22.2v-44.5z"/><path fill="#338af3" d="M289.4 133.6V256c0 59.6 77.9 78 77.9 78s78-18.4 78-78V133.6h-156z"/><path fill="#eee" d="M367.3 224.9c-19.5 0-19.5 17.8-39 17.8s-19.4-17.8-39-17.8V256c19.6 0 19.6 17.8 39 17.8s19.5-17.8 39-17.8 19.5 17.8 39 17.8 19.4-17.8 39-17.8v-31.2c-19.6 0-19.6 17.8-39 17.8-19.5 0-19.5-17.8-39-17.8zm0-62.4c-19.5 0-19.5 17.8-39 17.8s-19.4-17.8-39-17.8v31.2c19.6 0 19.6 17.8 39 17.8s19.5-17.8 39-17.8 19.5 17.8 39 17.8 19.4-17.8 39-17.8v-31.2c-19.6 0-19.6 17.8-39 17.8-19.5 0-19.5-17.8-39-17.8z"/></svg>