<svg xmlns="http://www.w3.org/2000/svg" viewBox="0 0 512 512"><circle cx="256" cy="256" r="256" fill="#eee"/><path fill="#0052b4" d="M500.9 256l9-33.4a255.7 255.7 0 0 0-6.7-33.4H233.7V1a255.4 255.4 0 0 0-33.4 5l-44.5 27.4-22.2-2.3A256.3 256.3 0 0 0 100.2 53v136.3H8.8a255.7 255.7 0 0 0-6.6 33.4l9 33.4-9 33.4a255.7 255.7 0 0 0 6.6 33.4h91.4V459a256.3 256.3 0 0 0 33.4 21.8l33.4-2.3 33.3 27.3a255.7 255.7 0 0 0 33.4 5.1V322.8h269.5a255.7 255.7 0 0 0 6.6-33.4l-9-33.4z"/><path fill="#d80027" d="M509.8 222.6H200.3V6.1a254.3 254.3 0 0 0-66.7 25v191.5H2.2a258.6 258.6 0 0 0 0 66.8h131.4v191.5a254.3 254.3 0 0 0 66.7 25V289.4h309.5a258.6 258.6 0 0 0 0-66.8z"/></svg>