<svg xmlns="http://www.w3.org/2000/svg" viewBox="0 0 512 512"><circle cx="256" cy="256" r="256" fill="#ffda44"/><path fill="#a2001d" d="M111.7 44.5a255.6 255.6 0 0 1 288.6 0L256 55.7 111.7 44.5z"/><path fill="#0052b4" d="M256 256l-16.3-16.3-4.4 7.7z"/><path fill="#496e2d" d="M75 75a256 256 0 0 0 0 362l181-181L75 75zm362 0a256 256 0 0 1 0 362L256 256 437 75z"/><circle cx="256" cy="256" r="89" fill="#a2001d"/><path fill="#ffda44" d="M256 167l20 61.4h64.6l-52.3 38 20 61.4-52.3-38-52.3 38 20-61.4-52.3-38H236zm0-167z"/><path fill="#a2001d" d="M256 0A255.2 255.2 0 0 0 75 75h362A255.2 255.2 0 0 0 256 0zM75 437c46.3 46.4 110.3 75 181 75s134.7-28.6 181-75H75z"/><path fill="#ffda44" d="M256 27.8l4.1 12.8h13.5l-10.9 7.9 4.2 12.7-10.9-7.9-10.8 8 4.1-12.8-10.9-8H252zm-62 0l4 12.8h13.5l-10.9 7.9 4.2 12.7-10.9-7.9-10.8 8 4.1-12.8-10.8-8h13.4zm124 0l4.2 12.8h13.4l-10.8 7.9 4.1 12.7-10.8-7.9-10.9 8 4.2-12.8-10.9-8H314zm-62 423l4.1 12.7h13.5l-10.9 8 4.2 12.7-10.9-8-10.8 8 4.1-12.8-10.9-7.9H252zm-62 0l4 12.7h13.5l-10.9 8 4.2 12.7-10.9-8-10.8 8 4.1-12.8-10.8-7.9h13.4zm124 0l4.2 12.7h13.4l-10.8 8 4.1 12.7-10.8-8-10.9 8 4.2-12.8-10.9-7.9H314zm-240-199a22.3 22.3 0 0 1-37.6 23.8c-12-18.8-5-49.5-5-49.5S66 233 78 251.8z"/><circle cx="65.1" cy="273.1" r="11.1" fill="#a2001d"/></svg>