<svg xmlns="http://www.w3.org/2000/svg" viewBox="0 0 512 512"><circle cx="256" cy="256" r="256" fill="#eee"/><path fill="#6da544" d="M435.1 73.1A255.1 255.1 0 0 0 256 0c-22.3 0-87.4 27.9-133.6 73.1h312.7zM256 219.4h253.4a254.2 254.2 0 0 0-22-73.1H244.9l11.1 73.1zM24.7 365.7h462.6a254.2 254.2 0 0 0 22-73.1H2.7a254.1 254.1 0 0 0 22 73.1zM76.9 439a256 256 0 0 0 358.2-.1H77z"/><path fill="#d80027" d="M256 0A256 256 0 0 0 2.6 219.4H256V0z"/><path fill="#eee" d="M128 196.3L116.9 174v-44.5l27.8-22.3 27.8 22.3v33.4l11.2-11.2V174l-22.3 22.3zM68.1 128l3 9h9.5l-7.7 5.7 3 9-7.8-5.6-7.7 5.6 3-9-7.7-5.6h9.5zm22.3-22.3l3 9.1h9.5l-7.7 5.6 3 9-7.8-5.5-7.7 5.6 3-9-7.8-5.7h9.5zm22.3-22.2l2.9 9h9.5l-7.7 5.7 3 9-7.7-5.6-7.8 5.6 3-9-7.7-5.7h9.5zM221.3 128l-3 9h-9.5l7.7 5.7-3 9 7.8-5.6 7.7 5.6-3-9 7.7-5.6h-9.5zM199 105.7l-3 9.1h-9.5l7.7 5.6-3 9 7.8-5.5 7.7 5.6-3-9 7.8-5.7h-9.6zm-22.3-22.2l-3 9h-9.4l7.7 5.7-3 9 7.7-5.6 7.8 5.6-3-9 7.7-5.7h-9.5zm-32-11.2l-3 9.1h-9.5L140 87l-3 9 7.8-5.5 7.7 5.6-3-9 7.8-5.7h-9.6z"/></svg>