<svg xmlns="http://www.w3.org/2000/svg" viewBox="0 0 512 512"><circle cx="256" cy="256" r="256" fill="#eee"/><g fill="#d80027"><path d="M509.8 222.6H289.4V2.2a258.6 258.6 0 0 0-66.8 0v220.4H2.2A258.6 258.6 0 0 0 0 256c0 11.3.7 22.5 2.2 33.4h220.4v220.4a258.4 258.4 0 0 0 66.8 0V289.4h220.4A258.5 258.5 0 0 0 512 256c0-11.3-.7-22.5-2.2-33.4z"/><path d="M155.8 122.4V89h-33.4v33.4H89v33.4h33.4v33.4h33.4v-33.4h33.4v-33.4zm233.8 0V89h-33.4v33.4h-33.4v33.4h33.4v33.4h33.4v-33.4H423v-33.4zM155.8 356.2v-33.4h-33.4v33.4H89v33.4h33.4V423h33.4v-33.4h33.4v-33.4zm233.8 0v-33.4h-33.4v33.4h-33.4v33.4h33.4V423h33.4v-33.4H423v-33.4z"/></g></svg>