<svg xmlns="http://www.w3.org/2000/svg" viewBox="0 0 512 512"><circle cx="256" cy="256" r="256" fill="#eee"/><path fill="#338af3" d="M512 256A256 256 0 0 0 367.3 25.4v461.2A256 256 0 0 0 512 256zM0 256a256 256 0 0 0 144.7 230.6V25.4A256 256 0 0 0 0 256z"/><path fill="#acabb1" d="M322.9 299.3L279.6 256l41.2-41.2L319 193l-11.7-11.8-51.2 51.2-51.2-51.2-11.7 11.8-2 21.8 41.3 41.2-43.3 43.3 23.6 23.6 43.3-43.3 43.3 43.3z"/><path fill="#6da544" d="M319 193l-23.6 23.6a55.5 55.5 0 0 1-39.4 95 55.7 55.7 0 0 1-39.4-95L193 193a89 89 0 1 0 126 0z"/></svg>