<svg xmlns="http://www.w3.org/2000/svg" viewBox="0 0 512 512"><path fill="#ffda44" d="M256 0a254 254 0 0 0-66.8 8.8L167 256l22.2 247.2A256.3 256.3 0 0 0 512 256 256 256 0 0 0 256 0z"/><path fill="#6da544" d="M167 256l22.2 247.2A256.3 256.3 0 0 0 512 256H167z"/><g fill="#d80027"><path d="M0 256c0 97 54 181.5 133.6 224.9V31A256 256 0 0 0 0 256z"/><path d="M0 256a256 256 0 0 0 189.2 247.2V8.8A256 256 0 0 0 0 256z"/></g><path fill="#333" d="M96.7 189.2l16.6 51H167l-43.4 31.6 16.5 51-43.4-31.5-43.4 31.5 16.6-51-43.4-31.6h53.7z"/></svg>