<svg xmlns="http://www.w3.org/2000/svg" viewBox="0 0 512 512"><circle cx="256" cy="256" r="256" fill="#eee"/><path fill="#6da544" d="M256 0a255 255 0 0 0-124.7 32.4v447.2A256 256 0 1 0 256 0z"/><path fill="#eee" d="M132 32a256.5 256.5 0 0 0-40.6 28l196 196-196 196a256.6 256.6 0 0 0 40.7 28L512 256 132 32z"/><path fill="#ffda44" d="M110.5 45.4A257.6 257.6 0 0 0 88 62.8L256 256 88 449.2a257.4 257.4 0 0 0 22.5 17.4L468.2 256 110.5 45.4z"/><path fill="#333" d="M91.4 60A257.8 257.8 0 0 0 75 75l158.7 181L75 437a256.6 256.6 0 0 0 16.4 15l196-196-196-196z"/><path fill="#d80027" d="M75 75a256 256 0 0 0 0 362l181-181L75 75z"/></svg>