<svg xmlns="http://www.w3.org/2000/svg" viewBox="0 0 512 512"><circle cx="256" cy="256" r="256" fill="#d80027"/><circle cx="256" cy="355" r="111" fill="#ffda44"/><path fill="#ffda44" d="M283.7 42L256 58l-27.7-16v32l-27.7 16 27.7 16v32l27.7-16 27.7 16v-32l27.7-16-27.7-16zm-181.4 9.6a256 256 0 0 0-12 9.6L94 69 71 93l2-15.6a256 256 0 0 0-42.8 58.3L34 141l-12.4 12.4a256 256 0 0 0-9.4 25L54 190l-19-18 24-17 24 17-19 18 54-15-34-34 13-18 12 26 5-27-14-17 12-33zm307.4 0L400 72l12 33-14 17 5 27 12-26 13 18-34 34 54 15-19-18 24-17 24 17-19 18 41.6-11.6A256 256 0 0 0 490 153l-12-12 3.8-5.2A256 256 0 0 0 439 77l2 16-23-24 3.7-8a256 256 0 0 0-12-9.3zM41 322l-25 19-.7 1.5A256 256 0 0 0 111 466.9l7-1.9-34-34 28-69-10-21-25-19 17 37-23 24 3-24-15-25-15 25 3 24-23-24zm394 0l-25 19-10 21 28 69-34 34 6.7 1.9a256 256 0 0 0 96-124.5l-.7-1.4-25-19 17 37-23 24 3-24-15-25-15 25 3 24-23-24z"/></svg>