<svg xmlns="http://www.w3.org/2000/svg" viewBox="0 0 512 512"><circle cx="256" cy="256" r="256" fill="#eee"/><path fill="#338af3" d="M256 512a256 256 0 0 0 230.6-144.7H25.4A256 256 0 0 0 256 512zm0-512A256 256 0 0 0 25.4 144.7h461.2A256 256 0 0 0 256 0zm-98.5 167l8.3 25.5h26.9L171 208.2l8.2 25.5-21.7-15.7-21.7 15.7 8.3-25.5-21.7-15.7h26.9zm0 111.3l8.3 25.5h26.9L171 319.5l8.2 25.5-21.7-15.7-21.7 15.7 8.3-25.5-21.7-15.7h26.9zm197-111.3l8.2 25.5h26.9l-21.7 15.7 8.3 25.5-21.7-15.7-21.7 15.7 8.2-25.5-21.7-15.7h26.9zm0 111.3l8.2 25.5h26.9l-21.7 15.7 8.3 25.5-21.7-15.7-21.7 15.7 8.2-25.5-21.7-15.7h26.9zM256 222.6l8.3 25.5H291L269.4 264l8.3 25.5-21.7-15.8-21.7 15.8 8.3-25.5-21.7-15.8h26.8z"/></svg>