<svg xmlns="http://www.w3.org/2000/svg" viewBox="0 0 512 512"><path fill="#eee" d="M512 256c0-31.3-5.6-61.3-16-89l-240-11.2L16 167a255.5 255.5 0 0 0 0 178l240 11.2L496 345c10.4-27.7 16-57.7 16-89z"/><path fill="#0052b4" d="M256 512a256 256 0 0 0 240-167H16a256 256 0 0 0 240 167z"/><path fill="#d80027" d="M16 167h480a256 256 0 0 0-480 0z"/><path fill="#338af3" d="M322.8 178h-44.5l7.4-55.6 29.7-22.2 29.6 22.2V167zm-133.6 0h44.5l-7.4-55.6-29.7-22.2-29.6 22.2V167z"/><path fill="#0052b4" d="M285.7 178h-59.4v-55.6l29.7-22.2 29.7 22.2z"/><path fill="#eee" d="M167 167v122.4a89 89 0 0 0 35.8 71.3l15.5-3.9 19.7 19.8a89.1 89.1 0 0 0 18 1.8 89 89 0 0 0 17.9-1.8l22.4-18.7 13 2.8a89 89 0 0 0 35.7-71.3V167H167z"/><path fill="#d80027" d="M167 167h35.6v35.6H167zm71.2 0h35.6v35.6h-35.6zm71.2 0H345v35.6h-35.6zm-106.8 35.6h35.6v35.6h-35.6zm71.2 0h35.6v35.6h-35.6zM167 238.2h35.6v35.6H167zm35.6 35.6h35.6v35.6h-35.6zm35.6-35.6h35.6v35.6h-35.6zm71.2 0H345v35.6h-35.6zm-35.6 35.6h35.6v35.6h-35.6zm-35.6 35.6h35.6V345h-35.6zm-35.6 0h-33.3c3 13.3 9 25.4 17.3 35.6h16v-35.6zM309.4 345h16a88.8 88.8 0 0 0 17.3-35.6h-33.3V345zm-106.8 0v15.6a88.7 88.7 0 0 0 35.6 16V345h-35.6zm71.2 0v31.6a88.7 88.7 0 0 0 35.6-16V345h-35.6z"/></svg>