<svg xmlns="http://www.w3.org/2000/svg" viewBox="0 0 512 512"><circle cx="256" cy="256" r="256" fill="#eee"/><path fill="#ff9811" d="M256 0A256 256 0 0 0 25.4 144.7h461.2A256 256 0 0 0 256 0z"/><path fill="#6da544" d="M256 512a256 256 0 0 0 230.6-144.7H25.4A256 256 0 0 0 256 512z"/><circle cx="256" cy="256" r="89" fill="#0052b4"/><circle cx="256" cy="256" r="55.7" fill="#eee"/><path fill="#0052b4" d="M256 187.3l17.2 39 42.3-4.6-25.2 34.3 25.2 34.3-42.3-4.6-17.2 39-17.2-39-42.3 4.6 25.2-34.3-25.2-34.3 42.3 4.6z"/></svg>