<svg xmlns="http://www.w3.org/2000/svg" viewBox="0 0 512 512"><circle cx="256" cy="256" r="256" fill="#eee"/><path fill="#0052b4" d="M256 0v31c21.4 0 21.6 20 43 20 21.3 0 21.6-20 43-20s21.6 20 43 20a25.2 25.2 0 0 0 16.4-5.6 256 256 0 0 0-82.3-37.2c-5 4.6-10.3 8.8-20.1 8.8-15.5 0-19.9-10.5-29.3-16.3A256 256 0 0 0 256 0zm0 65v34c21.4 0 21.6 20 43 20 21.3 0 21.6-20 43-20s21.6 20 43 20c21.3 0 21.6-20 43-20s21.6 20 43 20h1.1a256 256 0 0 0-46-54c-19.5 1.2-20.5 20-41.1 20-21.4 0-21.6-20-43-20s-21.7 20-43 20c-21.4 0-21.6-20-43-20zm-75 68l75 76v26c21.4 0 21.6 20 43 20 21.3 0 21.6-20 43-20s21.6 20 43 20c21.3 0 21.6-20 43-20s21.6 20 43 20c20.2 0 21.6-18 40-19.9a256 256 0 0 0-5-33c-13.9 4.3-16.8 18.9-35 18.9-21.4 0-21.6-20-43-20s-21.7 20-43 20c-21.4 0-21.6-20-43-20s-21.7 20-43 20c-21.4 0-21.6-20-43-20v-34c21.4 0 21.6 20 43 20 21.3 0 21.6-20 43-20s21.6 20 43 20c21.3 0 21.6-20 43-20s21.6 20 43 20c14 0 18.9-8.6 26.7-14.5a256 256 0 0 0-10.2-25.2A25.2 25.2 0 0 1 471 153c-21.4 0-21.6-20-43-20s-21.7 20-43 20c-21.4 0-21.6-20-43-20s-21.7 20-43 20c-21.4 0-21.6-20-43-20h-75zm-47 48v75h75l-75-75zm-50 88c-21.4 0-21.7 20-43 20-20.5 0-21.6-18.4-40.5-19.9a256 256 0 0 0 4.2 34.7C19.7 307.4 22 323 41 323c21.3 0 21.6-20 43-20s21.6 20 43 20c21.3 0 21.6-20 43-20s21.6 20 43 20c21.3 0 21.6-20 43-20s21.6 20 43 20c21.3 0 21.6-20 43-20s21.6 20 43 20c21.3 0 21.6-20 43-20s21.6 20 43 20c18.8 0 21.3-15.6 36.4-19.3a256 256 0 0 0 4-34.6c-18.8 1.6-20 19.9-40.4 19.9-21.4 0-21.6-20-43-20s-21.7 20-43 20c-21.4 0-21.6-20-43-20s-21.7 20-43 20c-21.4 0-21.6-20-43-20s-21.7 20-43 20c-21.4 0-21.6-20-43-20s-21.7 20-43 20c-21.4 0-21.6-20-43-20zm0 68c-21.4 0-21.7 20-43 20-13.1 0-18.3-7.6-25.3-13.4a256 256 0 0 0 23 47.3l2.3.1c21.3 0 21.6-20 43-20s21.6 20 43 20c21.3 0 21.6-20 43-20s21.6 20 43 20c21.3 0 21.6-20 43-20s21.6 20 43 20c21.3 0 21.6-20 43-20s21.6 20 43 20c21.3 0 21.6-20 43-20s21.6 20 43 20h2.2a256 256 0 0 0 23-47.3c-7 5.8-12.2 13.3-25.2 13.3-21.4 0-21.6-20-43-20s-21.7 20-43 20c-21.4 0-21.6-20-43-20s-21.7 20-43 20c-21.4 0-21.6-20-43-20s-21.7 20-43 20c-21.4 0-21.6-20-43-20s-21.7 20-43 20c-21.4 0-21.6-20-43-20zm0 68c-13.3 0-18.4 7.7-25.5 13.6a256 256 0 0 0 19.5 21c1.8-.4 3.8-.6 6-.6 21.4 0 21.6 20 43 20 21.3 0 21.6-20 43-20s21.6 20 43 20c21.3 0 21.6-20 43-20s21.6 20 43 20c21.3 0 21.6-20 43-20s21.6 20 43 20c21.3 0 21.6-20 43-20 2.3 0 4.4.2 6.3.7a256 256 0 0 0 19.3-21.1c-7.2-5.9-12.3-13.6-25.6-13.6-21.4 0-21.7 20-43 20-21.4 0-21.6-20-43-20s-21.7 20-43 20c-21.4 0-21.6-20-43-20s-21.7 20-43 20c-21.4 0-21.6-20-43-20s-21.7 20-43 20c-21.4 0-21.6-20-43-20zm86 68c-13 0-18.3 7.4-25.2 13.2a256 256 0 0 0 96.6 25A25 25 0 0 1 256 507a25 25 0 0 1 14.9 4.5 256 256 0 0 0 96.3-25.2c-7-5.8-12.1-13.3-25.2-13.3-21.4 0-21.7 20-43 20-21.4 0-21.6-20-43-20s-21.7 20-43 20c-21.4 0-21.6-20-43-20z"/><path fill="#6da544" d="M334 134h100l-50 50z"/><path fill="#a2001d" d="M373 173h22v61h-22zm0 161h22v61h-22z"/><path fill="#ffda44" d="M451 301a33.7 33.7 0 0 0-56-25v-20h11v-22h-11v-11h-22v11h-11v22h11v20c-13.8-11.6-35-10.4-47 3s-11 33.6 2 46v20h112v-20c7-6.3 11-14.5 11-24z"/><path fill="#d80027" d="M130.9 33A256 256 0 0 0 33 130.6V256h67V100h156V33zm3.1 100l122 123v-31l-91-92zm217.3 156.4a10.5 10.5 0 0 0-8.3 3.6c-4 4.4-4.2 11.8 0 16l8 6v8h65v-8l8-6c4.2-4.2 4-11.6 0-16s-10.4-4.7-15-1l-15 14h-21l-15-14a11.4 11.4 0 0 0-6.7-2.6z"/><path fill="#eee" d="M256 0zm-.7 256h.7v-.7l-.7.7z"/></svg>