<svg xmlns="http://www.w3.org/2000/svg" viewBox="0 0 512 512"><circle cx="256" cy="256" r="256" fill="#eee"/><path fill="#a2001d" d="M256 0A256 256 0 0 0 16 167h480A256 256 0 0 0 256 0z"/><path fill="#333" d="M256 512a256 256 0 0 0 240-167H16a256 256 0 0 0 240 167z"/><path fill="#496e2d" d="M194.8 239.3h-49.4a22.3 22.3 0 0 1 21.6-16.7v-33.4c-30.7 0-55.7 25-55.7 55.7v27.8h83.5a5.6 5.6 0 0 1 5.5 5.6v11H89v33.5h144.7v-44.5a39 39 0 0 0-39-39zm83.5 50v-100h-33.4v133.5h55.6v-33.4zm111.3 0v-100h-33.4v100H345V256h-33.3v66.8h100.1v-33.4z"/></svg>