<svg xmlns="http://www.w3.org/2000/svg" viewBox="0 0 512 512"><path fill="#ffda44" d="M437 437A256 256 0 0 1 75 75s230-68 330 32 32 330 32 330z"/><path fill="#d80027" d="M437 437A256 256 0 0 0 75 75l362 362z"/><path fill="#ff9811" d="M323 323a38.9 38.9 0 0 1-48.3-55.4l-3.2-1.7A72.5 72.5 0 0 0 302 141l-23.3 24a38.9 38.9 0 0 1-23.8 69.4v3.6a72.5 72.5 0 0 0-123.2 36l32.4 8.2a38.9 38.9 0 0 1 72-14l3.2-2a72.5 72.5 0 0 0 92.7 89l-9-32.3zm-67.7-66.3z"/><path fill="#ffeacf" d="M350.8 173.4L332.7 238l-54.3-10-35-72.1-94.4 33.5-7.4-21-24.7-3 18.6 52.4 65-16.6 18.4 52-44.9 66.3 76.3 65-14.5 17 9.7 22.9 36.1-42.4-46.8-48 35.8-42 79.8 5.8 18.2-98.5 22 4 15-19.8-54.8-10.1zM256 257.7z"/></svg>