<svg xmlns="http://www.w3.org/2000/svg" viewBox="0 0 512 512"><circle cx="256" cy="256" r="256" fill="#eee"/><path fill="#d80027" d="M509.8 222.6H289.4V2.2a258.6 258.6 0 0 0-66.8 0v220.4H2.2a258.6 258.6 0 0 0 0 66.8h220.4v220.4a258.4 258.4 0 0 0 66.8 0V289.4h220.4a258.6 258.6 0 0 0 0-66.8z"/><path fill="#333" d="M378.4 89a44.5 44.5 0 0 0-43 33.4l43 11.2 43.2-11.2A44.5 44.5 0 0 0 378.4 89zM334 189.2l55.7 11.1v-23.6c15.6-4 28-16.4 32-32l-43.2-11.1h-55.6L334 167v22.2z"/><path fill="#acabb1" d="M421.6 122.4h-98.8V167h11.1v-22.3h87.7a44.6 44.6 0 0 0 1.4-11.1c0-3.9-.5-7.6-1.4-11.2z"/><path fill="#333" d="M144.7 89a44.5 44.5 0 0 0-43.1 33.4l43.1 11.2 43.1-11.2A44.5 44.5 0 0 0 144.7 89zm-44.5 100.2l55.6 11.1v-23.6c15.7-4 28-16.4 32-32l-43.1-11.1H89l11.2 33.4v22.2z"/><path fill="#acabb1" d="M187.8 122.4H89V167h11.2v-22.3h87.6a44.6 44.6 0 0 0 1.4-11.1c0-3.9-.5-7.6-1.4-11.2z"/><path fill="#333" d="M378.4 311.7a44.5 44.5 0 0 0-43 33.3l43 11.2 43.2-11.2a44.5 44.5 0 0 0-43.2-33.3zM334 411.8l55.7 11.2v-23.7c15.6-4 28-16.4 32-32l-43.2-11.1h-55.6l11.1 33.4v22.2z"/><path fill="#acabb1" d="M421.6 345h-98.8v44.6h11.1v-22.3h87.7a44.6 44.6 0 0 0 1.4-11.1c0-3.9-.5-7.6-1.4-11.2z"/><path fill="#333" d="M144.7 311.7a44.5 44.5 0 0 0-43.1 33.3l43.1 11.2 43.1-11.2a44.5 44.5 0 0 0-43.1-33.3zm-44.5 100.1l55.6 11.2v-23.7c15.7-4 28-16.4 32-32l-43.1-11.1H89l11.2 33.4v22.2z"/><path fill="#acabb1" d="M187.8 345H89v44.6h11.2v-22.3h87.6a44.6 44.6 0 0 0 1.4-11.1c0-3.9-.5-7.6-1.4-11.2z"/></svg>