<svg xmlns="http://www.w3.org/2000/svg" viewBox="0 0 512 512"><circle cx="256" cy="256" r="256" fill="#eee"/><path fill="#d80027" d="M459.1 411.9L303.2 256l155.9-155.9A258.2 258.2 0 0 0 411.9 53L256 208.8 100.1 52.9A258.2 258.2 0 0 0 53 100.1L208.8 256 52.9 411.9a258.2 258.2 0 0 0 47.2 47.2L256 303.2l155.9 155.9a258.3 258.3 0 0 0 47.2-47.2z"/><path fill="#ffda44" d="M211.5 78L256 89l44.5-11V40l-17.8 9L256 22.3 229.3 49l-17.8-9z"/><path fill="#d80027" d="M211.5 78v27.7c0 34.1 44.5 44.6 44.5 44.6s44.5-10.5 44.5-44.6V78h-89z"/></svg>