<svg xmlns="http://www.w3.org/2000/svg" viewBox="0 0 512 512"><circle cx="256" cy="256" r="256" fill="#ffda44"/><path fill="#6da544" d="M411.9 53C368.7 19.6 314.7 0 256 0S143.3 19.7 100.1 53L256 208.7 411.9 52.9z"/><path fill="#333" d="M53 100.1C19.6 143.3 0 197.3 0 256s19.7 112.7 53 155.9L208.7 256 52.9 100.1z"/><path fill="#6da544" d="M100.1 459c43.2 33.3 97.2 53 155.9 53s112.7-19.7 155.9-53L256 303.3 100.1 459.1z"/><path fill="#333" d="M459 411.9c33.3-43.2 53-97.2 53-155.9s-19.7-112.7-53-155.9L303.3 256l155.9 155.9z"/></svg>