<svg xmlns="http://www.w3.org/2000/svg" viewBox="0 0 512 512"><path fill="#d80027" d="M0 256c0 44.4 11.3 86 31.1 122.4L256 400.7l224.9-22.3c19.8-36.3 31.1-78 31.1-122.4s-11.3-86-31.1-122.4L256 111.3 31.1 133.6A254.9 254.9 0 0 0 0 256z"/><path fill="#0052b4" d="M31.1 133.6H481a256 256 0 0 0-449.8 0zM256 512c97 0 181.5-54 224.9-133.6H31A256 256 0 0 0 256 512z"/><path fill="#eee" d="M345 306v-33.3h-22.2v-44.5l-22.3-22.3-22.2 22.3v-44.5L256 161.4l-22.3 22.3v44.5l-22.2-22.3-22.3 22.3v44.5H167v33.4h-22.3v33.4h222.6V306z"/></svg>