<svg xmlns="http://www.w3.org/2000/svg" viewBox="0 0 512 512"><path fill="#d80027" d="M0 256a256 256 0 0 1 512 0"/><path fill="#ffda44" d="M345 238l-36.3 17.2 19.3 35.2-39.5-7.5-5 39.9-27.5-29.4-27.5 29.4-5-40-39.5 7.6 19.3-35.2L167 238l36.3-17.1-19.3-35.3 39.5 7.6 5-40 27.5 29.4 27.5-29.3 5 39.9 39.5-7.6-19.3 35.3zM322.8 83.6h-50.1a16.7 16.7 0 0 0-33.4 0h-50c0 9.2 8 16.7 17.2 16.7h-.6c0 9.2 7.5 16.7 16.7 16.7 0 9.2 7.5 16.7 16.7 16.7h33.4c9.2 0 16.7-7.5 16.7-16.7 9.2 0 16.7-7.5 16.7-16.7h-.6c9.3 0 17.3-7.5 17.3-16.7z"/><path fill="#eee" d="M512 256a256 256 0 0 1-512 0h512z"/><path fill="#0052b4" d="M256 512c80 0 151.5-36.7 198.4-94.2-8.4-5.8-13-15-27.7-15-21.4 0-21.4 19.4-42.7 19.4s-21.3-19.5-42.7-19.5c-21.3 0-21.3 19.5-42.6 19.5s-21.4-19.5-42.7-19.5c-21.3 0-21.3 19.5-42.7 19.5-21.3 0-21.3-19.5-42.6-19.5-21.4 0-21.4 19.5-42.7 19.5s-21.3-19.5-42.7-19.5c-14.7 0-19.3 9.3-27.7 15A255.5 255.5 0 0 0 256 512zm213.3-223.3c-21.3 0-21.3-19.6-42.6-19.6-21.4 0-21.4 19.5-42.7 19.5s-21.3-19.5-42.7-19.5c-21.3 0-21.3 19.5-42.6 19.5s-21.4-19.5-42.7-19.5c-21.3 0-21.3 19.5-42.7 19.5-21.3 0-21.3-19.5-42.6-19.5-21.4 0-21.4 19.5-42.7 19.5s-21.3-19.5-42.7-19.5c-21.3 0-21.3 19.5-42.6 19.5S21.3 269.4.3 269.3a256.2 256.2 0 0 0 4.1 34.4c17 2.5 18.5 19.2 38.3 19.2 21.3 0 21.3-19.5 42.6-19.5 21.4 0 21.4 19.5 42.7 19.5s21.3-19.5 42.7-19.5c21.3 0 21.3 19.5 42.6 19.5 21.4 0 21.4-19.5 42.7-19.5 21.3 0 21.3 19.5 42.7 19.5s21.3-19.5 42.6-19.5c21.4 0 21.4 19.5 42.7 19.5s21.3-19.5 42.7-19.5c21.3 0 21.3 19.5 42.6 19.5 19.8 0 21.3-16.7 38.3-19.2a256.5 256.5 0 0 0 4-34.4c-21 .2-21 19.5-42.3 19.5zm-42.6 47.2c-21.4 0-21.4 19.5-42.7 19.5S362.7 336 341.3 336c-21.3 0-21.3 19.5-42.6 19.5-21.4 0-21.4-19.5-42.7-19.5-21.3 0-21.3 19.5-42.7 19.5-21.3 0-21.3-19.5-42.6-19.5-21.4 0-21.4 19.5-42.7 19.5S106.7 336 85.3 336C64 336 64 355.4 42.7 355.4c-15.3 0-19.6-10-28.7-15.6A254.7 254.7 0 0 0 37.3 389c1.6.3 3.4.5 5.4.5C64 389.6 64 370 85.3 370c21.4 0 21.4 19.5 42.7 19.5s21.3-19.5 42.7-19.5c21.3 0 21.3 19.5 42.6 19.5 21.4 0 21.4-19.5 42.7-19.5 21.3 0 21.3 19.5 42.7 19.5S320 370 341.3 370c21.4 0 21.4 19.5 42.7 19.5s21.3-19.5 42.7-19.5c21.3 0 21.3 19.5 42.6 19.5 2 0 3.8-.2 5.4-.5a254.9 254.9 0 0 0 23.3-49.3c-9 5.7-13.4 15.6-28.7 15.6-21.3 0-21.3-19.5-42.6-19.5z"/><path fill="#eee" d="M511.2 235.8c-20.5.5-20.8 19.5-41.9 19.5-21.3 0-21.3-19.5-42.6-19.5-21.4 0-21.4 19.5-42.7 19.5s-21.3-19.5-42.7-19.5c-21.3 0-21.3 19.5-42.6 19.5s-21.4-19.5-42.7-19.5c-21.3 0-21.3 19.5-42.7 19.5-21.3 0-21.3-19.5-42.6-19.5-21.4 0-21.4 19.5-42.7 19.5s-21.3-19.5-42.7-19.5c-21.3 0-21.3 19.5-42.6 19.5-21 0-21.4-19-42-19.5A259.8 259.8 0 0 0 0 256c0 4.7.1 9.3.4 13.9 21 .2 21 19.5 42.3 19.5 21.3 0 21.3-19.5 42.6-19.5 21.4 0 21.4 19.5 42.7 19.5s21.3-19.5 42.7-19.5c21.3 0 21.3 19.5 42.6 19.5 21.4 0 21.4-19.5 42.7-19.5 21.3 0 21.3 19.5 42.7 19.5s21.3-19.5 42.6-19.5c21.4 0 21.4 19.5 42.7 19.5s21.3-19.5 42.7-19.5c21.3 0 21.3 19.5 42.6 19.5 21.2 0 21.4-19.3 42.3-19.5a260.3 260.3 0 0 0-.4-34.1z"/></svg>