<svg xmlns="http://www.w3.org/2000/svg" viewBox="0 0 512 512"><circle cx="256" cy="256" r="256" fill="#eee"/><path fill="#d80027" d="M512 255.3H234.5c-55.1 55-88.4 97.6-122.5 131.6l144.7 13 224.6-22.2A254.8 254.8 0 0 0 512 256v-.7z"/><path fill="#ffda44" d="M112 132.8h368.5A256 256 0 0 0 75.4 74.6l36.6 58.2z"/><path fill="#0052b4" d="M123.2 377.7c-23 23-32 42.3-48.6 59a256 256 0 0 0 406.7-59H123.2z"/><path fill="#6da544" d="M75 74.2a256 256 0 0 0 0 362l181-181-181-181z"/><g fill="#eee"><path d="M67.5 255.3a78 78 0 0 1 61.2-76.1 78.2 78.2 0 0 0-16.7-1.9 78 78 0 1 0 16.7 154 78 78 0 0 1-61.2-76z"/><path d="M127.9 188.5l4.1 12.7h13.4l-10.8 8 4.1 12.7-10.8-8-10.9 8 4.2-12.8-10.9-7.9h13.4zm0 33.4l4.1 12.7h13.4l-10.8 7.9 4.1 12.8-10.8-8-10.9 8 4.2-12.8-10.9-7.9h13.4zm0 33.4L132 268h13.4l-10.8 7.9 4.1 12.7-10.8-7.8-10.9 7.8 4.2-12.7-10.9-7.9h13.4zm0 33.3l4.1 12.8h13.4l-10.8 7.9 4.1 12.7-10.8-7.8L117 322l4.2-12.7-10.9-7.9h13.4z"/></g></svg>