<svg xmlns="http://www.w3.org/2000/svg" viewBox="0 0 512 512"><circle cx="256" cy="256" r="256" fill="#ffda44"/><path fill="#333" d="M75 437a257.5 257.5 0 0 0 34.2 28.8l356.6-356.6A257.3 257.3 0 0 0 437 75a257.6 257.6 0 0 0-34.2-28.8L46.2 402.8A257.4 257.4 0 0 0 75 437z"/><path fill="#6da544" d="M75 75a256.1 256.1 0 0 0-46.6 298.4l345-345A256.1 256.1 0 0 0 75 75z"/><path fill="#d80027" d="M437 437a256.1 256.1 0 0 0 46.6-298.4l-345 345A256.1 256.1 0 0 0 437 437z"/><path fill="#eee" d="M162.8 302l23.9 12.2 19-19-4.3 26.5 24 12.2-26.6 4.2-4.2 26.5-12.1-24L156 345l19-19zM302 162.8l23.9 12.1 19-19-4.2 26.6 23.9 12.1-26.5 4.2-4.2 26.5-12.2-23.9-26.5 4.2 19-19z"/></svg>