<svg xmlns="http://www.w3.org/2000/svg" viewBox="0 0 512 512"><circle cx="256" cy="256" r="256" fill="#eee"/><path fill="#0052b4" d="M256 0A255.4 255.4 0 0 0 62 89h388A255 255 0 0 0 256 0zm194 423H62c46.9 54.5 116.4 89 194 89s147.1-34.5 194-89z"/><path fill="#d80027" d="M474.4 122.4H37.6C13.7 161.4 0 207.1 0 256s13.7 94.7 37.6 133.6h436.8c23.9-39 37.6-84.7 37.6-133.6s-13.7-94.7-37.6-133.6z"/><circle cx="157.5" cy="256" r="98.5" fill="#eee"/><path fill="#d80027" d="M157.5 157.5l22.1 68h71.6l-58 42 22.3 68.3-58-42.3-58 42.2 22.2-68.1-57.9-42h71.6z"/></svg>