<svg xmlns="http://www.w3.org/2000/svg" viewBox="0 0 512 512"><circle cx="256" cy="256" r="256" fill="#eee"/><path fill="#d80027" d="M256 0A256 256 0 0 0 25.4 144.7h461.2A256 256 0 0 0 256 0z"/><path fill="#6da544" d="M256 512a256 256 0 0 0 230.6-144.7H25.4A256 256 0 0 0 256 512z"/><path fill="#ffda44" d="M256 95.9l19.4 83.6 56.1-65-21.6 83 79.8-31.4-57.7 63.5 85.3 9.2-80.7 29.3L408 316l-85-11.5 40.8 75.5-70-49.7L295 416l-39-76.4-38.9 76.4 1.2-85.8-70 49.7 40.8-75.5-85 11.5 71.3-47.9-80.7-29.3 85.3-9.3-57.7-63.4 79.8 31.5-21.6-83.1 56 65z"/></svg>