<svg xmlns="http://www.w3.org/2000/svg" viewBox="0 0 512 512"><g fill="#eee"><circle cx="256" cy="256" r="256"/><path d="M58.5 93h395a257.4 257.4 0 0 0-50.3-46.5H108.8a257.4 257.4 0 0 0-50.3 46.6zM0 256c0 7.8.4 15.6 1 23.3h510a259.2 259.2 0 0 0 1-23.3c0-7.8-.4-15.6-1-23.3H1A259.1 259.1 0 0 0 0 256zm28 116.4h456a254.3 254.3 0 0 0 18.4-46.6H9.6A254.3 254.3 0 0 0 28 372.4zm80.8 93h294.4a257.4 257.4 0 0 0 50.3-46.5h-395a257.5 257.5 0 0 0 50.3 46.6zM9.6 186.3h492.8a254.3 254.3 0 0 0-18.3-46.6H27.9a254.3 254.3 0 0 0-18.3 46.6z"/></g><path fill="#d80027" d="M122.4 46.5h280.8A254.8 254.8 0 0 0 256 0c-33.4 0-92 17.2-133.6 46.5zM245 139.6h239a256.3 256.3 0 0 0-30.6-46.5H244.9v46.5zm0 93.1h266a255.1 255.1 0 0 0-8.5-46.5H244.9v46.5zM9.6 325.8h492.8a255 255 0 0 0 8.5-46.5H1.1a255 255 0 0 0 8.5 46.5zm49 93.1h394.9a256.4 256.4 0 0 0 30.6-46.5H27.9a256.3 256.3 0 0 0 30.6 46.5zM256 512c54.8 0 105.6-17.2 147.2-46.5H108.8A254.8 254.8 0 0 0 256 512z"/><path fill="#0052b4" d="M9.6 186.2a255 255 0 0 0-8.5 46.5H256V0C138.8 0 40 78.7 9.6 186.2z"/><path fill="#eee" d="M152.4 66.8l16.6 51h53.6l-43.4 31.5 16.6 51-43.4-31.5-43.4 31.5 16.6-51-43.4-31.5h53.6z"/></svg>