<svg xmlns="http://www.w3.org/2000/svg" viewBox="0 0 512 512"><path fill="#333" d="M25.4 144.7C9.1 178.4 0 216.1 0 256s9.1 77.6 25.4 111.3L256 389.6l230.6-22.3C502.9 333.6 512 295.9 512 256s-9.1-77.6-25.4-111.3L256 122.4 25.4 144.7z"/><path fill="#496e2d" d="M25.4 367.3a256 256 0 0 0 461.2 0H25.4z"/><path fill="#d80027" d="M25.4 144.7h461.2a256 256 0 0 0-461.2 0z"/><g fill="#eee"><path d="M315.6 209.2l21 29 34-11.1-21 29 21 28.9-34-11.1-21 29V267l-34-11.1 34-11z"/><path d="M258.3 328.3a72.3 72.3 0 1 1 34.4-136 89 89 0 1 0 0 127.3 72 72 0 0 1-34.4 8.7z"/></g></svg>