<svg xmlns="http://www.w3.org/2000/svg" viewBox="0 0 512 512"><path fill="#ffda44" d="M367.3 25.4C333.6 9.1 295.9 0 256 0s-77.6 9.1-111.3 25.4L122.4 256l22.3 230.6C178.4 502.9 216.1 512 256 512s77.6-9.1 111.3-25.4L389.6 256 367.3 25.4z"/><path fill="#0052b4" d="M144.7 25.4a256 256 0 0 0 0 461.2V25.4z"/><path fill="#d80027" d="M367.3 25.4v461.2a256 256 0 0 0 0-461.2z"/><path fill="#ff9811" d="M345 201.4h-61.2a27.8 27.8 0 1 0-55.6 0H167a28.2 28.2 0 0 0 28.3 27.4h-1a27.4 27.4 0 0 0 27.5 27.4c0 13.4 9.6 24.5 22.3 27l-21.6 48.7a88.8 88.8 0 0 0 33.5 6.5 88.8 88.8 0 0 0 33.5-6.5L268 283a27.4 27.4 0 0 0 22.3-26.9 27.4 27.4 0 0 0 27.4-27.4h-.9a28.2 28.2 0 0 0 28.3-27.4z"/><path fill="#0052b4" d="M256 239.3L219.8 256v33.4l36.2 22.3 36.2-22.3V256z"/><path fill="#d80027" d="M219.8 222.6h72.4V256h-72.4z"/></svg>