<svg xmlns="http://www.w3.org/2000/svg" viewBox="0 0 512 512"><path fill="#0052b4" d="M256 512a256 256 0 0 0 226.7-375l-227 119.3L375 29.3A256 256 0 1 0 256 512z"/><path fill="#eee" d="M482.4 137.3A256 256 0 0 0 374.7 29.6l-300 407.7 407.7-300z"/><path fill="#ff9811" d="M74.7 437.3l407.7-300a256 256 0 0 0-45.7-62l-362 362z"/><path fill="#eee" d="M222.3 150.1L191 164.8l16.7 30.3-34-6.5-4.3 34.3-23.6-25.2-23.7 25.2-4.3-34.3-33.9 6.5 16.6-30.3-31.2-14.7 31.2-14.7L84 105.1l34 6.5 4.2-34.3 23.7 25.3 23.6-25.3 4.3 34.3 34-6.5-16.7 30.3z"/></svg>