<svg xmlns="http://www.w3.org/2000/svg" viewBox="0 0 512 512"><path fill="#0052b4" d="M256 512c31.3 0 61.3-5.6 89-16l11.2-240L345 16a255.5 255.5 0 0 0-178 0l-11.2 240L167 496c27.7 10.4 57.7 16 89 16z"/><path fill="#a2001d" d="M0 256a256 256 0 0 0 167 240V16A256 256 0 0 0 0 256zM345 16v480a256 256 0 0 0 0-480z"/><g fill="#ffda44"><path d="M122.4 256h22.3v89h-22.3zm-89 0h22.3v89H33.4z"/><circle cx="89" cy="289.4" r="22.3"/><circle cx="89" cy="211.5" r="11.1"/><path d="M66.8 322.8h44.5V345H66.8zm0-89h44.5V256H66.8zM89 133.5l8 24.2h25.4l-20.6 15 7.9 24.3L89 182l-20.6 15 7.9-24.3-20.6-15h25.5z"/></g></svg>