<svg xmlns="http://www.w3.org/2000/svg" viewBox="0 0 512 512"><circle cx="256" cy="256" r="256" fill="#eee"/><path fill="#0052b4" d="M509.8 222.6c-7-54-31.3-106.1-72.8-147.6S343.4 9.3 289.4 2.2v220.4h220.4zM222.6 2.2C168.6 9.2 116.5 33.5 75 75A254.9 254.9 0 0 0 2.2 222.6h220.4V2.2zM2.2 289.4c7 54 31.3 106.1 72.8 147.6a254.9 254.9 0 0 0 147.6 72.8V289.4H2.2zm287.2 220.4c54-7 106.1-31.3 147.6-72.8s65.7-93.6 72.8-147.6H289.4v220.4z"/><path fill="#eee" d="M343.4 162.4a6.2 6.2 0 0 1 6.2-6.1h13.2a38 38 0 0 0 0-75.9h-12.6c-4-3-9.6-5-15.6-5-12.7 0-23 8.3-23 18.4 0 10 10.1 18.2 22.6 18.3h28.6a6.2 6.2 0 0 1 0 12.4h-13.2a38 38 0 0 0 0 75.8h51.1v-31.7h-51.1a6.2 6.2 0 0 1-6.2-6.2zm-200.4 0a6.2 6.2 0 0 1 6.2-6.1h13.2a38 38 0 0 0 0-75.9H150c-4.1-3-9.6-5-15.7-5-12.6 0-22.9 8.3-22.9 18.4 0 10 10 18.2 22.6 18.3h28.5a6.2 6.2 0 0 1 0 12.4h-13.2a38 38 0 0 0 0 75.8h51.1v-31.7h-51a6.2 6.2 0 0 1-6.3-6.2zm200.4 236.2a6.2 6.2 0 0 1 6.2-6.2h13.2a38 38 0 0 0 0-75.8h-12.6c-4-3-9.6-5-15.6-5-12.7 0-23 8.3-23 18.4 0 10 10.1 18.1 22.6 18.3h28.6a6.2 6.2 0 0 1 6.2 6.2 6.2 6.2 0 0 1-6.2 6.2h-13.2a38 38 0 0 0 0 75.8h51v-31.7h-51a6.2 6.2 0 0 1-6.2-6.2zm-200.4 0a6.2 6.2 0 0 1 6.2-6.2h13.2a38 38 0 0 0 0-75.8H150c-4.1-3-9.6-5-15.7-5-12.6 0-22.9 8.3-22.9 18.4 0 10 10 18.1 22.6 18.3h28.5a6.2 6.2 0 0 1 6.2 6.2 6.2 6.2 0 0 1-6.2 6.2h-13.2a38 38 0 0 0 0 75.8h51.1v-31.7h-51a6.2 6.2 0 0 1-6.3-6.2z"/></svg>