<svg xmlns="http://www.w3.org/2000/svg" viewBox="0 0 512 512"><circle cx="256" cy="256" r="256" fill="#eee"/><path fill="#d80027" d="M244.9 256H512c0-23.1-3-45.5-8.8-66.8H244.9V256zm0-133.6h229.5a257.3 257.3 0 0 0-59-66.7H244.9v66.7zM256 512a255 255 0 0 0 159.4-55.7H96.6A255 255 0 0 0 256 512zM37.6 389.6h436.8a254.5 254.5 0 0 0 28.8-66.8H8.8a254.5 254.5 0 0 0 28.8 66.8z"/><path fill="#0052b4" d="M256 256V0A256 256 0 0 0 0 256h256z"/><g fill="#ffda44"><path d="M170.2 219.1a63.3 63.3 0 1 1 30.1-119 78 78 0 1 0 0 111.4 63 63 0 0 1-30 7.6z"/><path d="M188 111.3l11.3 23.5 25.4-5.9-11.4 23.5 20.4 16.2-25.4 5.7.1 26-20.3-16.2-20.4 16.2.1-26-25.4-5.7 20.4-16.2-11.4-23.5 25.4 6z"/></g></svg>