<svg xmlns="http://www.w3.org/2000/svg" viewBox="0 0 512 512"><circle cx="256" cy="256" r="256" fill="#eee"/><path fill="#ffda44" d="M138.4 356.2L75 437a256 256 0 0 0 416.6-80.8H138.4z"/><path fill="#496e2d" d="M492 156.8A256 256 0 0 0 75 75l64.1 81.8h353z"/><path fill="#333" d="M55.7 188.3v134.5h447.5a256.1 256.1 0 0 0-.3-134.5H55.7z"/><path fill="#a2001d" d="M75 75a256 256 0 0 0 0 362l181-181L75 75z"/><path fill="#ffda44" d="M103.6 189.2l16.6 51h53.6l-43.4 31.6 16.6 51-43.4-31.5-43.4 31.5 16.6-51-43.4-31.6H87z"/><path fill="#eee" d="M55.1 256h97v44.5h-97z"/><path fill="#333" d="M170.5 205l-15.7-15.8-51.2 51.2-51.1-51.2L36.7 205 88 256l-51.2 51.3 15.8 15.5 51.1-51 51.2 51 15.7-15.5-51.2-51.2z"/></svg>