<svg xmlns="http://www.w3.org/2000/svg" viewBox="0 0 512 512"><circle cx="256" cy="256" r="256" fill="#eee"/><path fill="#a2001d" d="M75 437a257.5 257.5 0 0 0 34.2 28.8l356.6-356.6A257.4 257.4 0 0 0 437 75a257.5 257.5 0 0 0-34.2-28.8L46.2 402.8A257.6 257.6 0 0 0 75 437z"/><path fill="#0052b4" d="M75 75a256.1 256.1 0 0 0-46.6 298.4l345-345A256.1 256.1 0 0 0 75 75z"/><path fill="#496e2d" d="M437 437a256.1 256.1 0 0 0 46.6-298.4l-345 345A256.1 256.1 0 0 0 437 437z"/><path fill="#ffda44" d="M211.5 144.7l-28.7 13.5L198 186l-31.2-6-4 31.5-21.6-23.2-21.7 23.2-4-31.5-31.1 6 15.3-27.8L71 144.7l28.7-13.5-15.3-27.8 31.1 6 4-31.5 21.7 23.2L163 77.9l4 31.5 31-6-15.2 27.8z"/></svg>