<svg xmlns="http://www.w3.org/2000/svg" viewBox="0 0 512 512"><circle cx="256" cy="256" r="256" fill="#eee"/><path fill="#338af3" d="M256 0A256 256 0 0 0 25.4 144.7h461.2A256 256 0 0 0 256 0zm0 512a256 256 0 0 0 230.6-144.7H25.4A256 256 0 0 0 256 512z"/><path fill="#ffda44" d="M256 178a78 78 0 1 0 0 156 78 78 0 0 0 0-156zm0 122.5a44.5 44.5 0 1 1 0-89 44.5 44.5 0 0 1 0 89z"/><path fill="#0052b4" d="M294.6 267.1L256 256l-38.6 11.1-12.8 22.3h102.8z"/><path fill="#338af3" d="M256 200.3L230.3 245l25.7 11 25.7-11.1z"/><path fill="#6da544" d="M217.4 267.1h77.2L281.7 245h-51.4z"/></svg>