<svg xmlns="http://www.w3.org/2000/svg" viewBox="0 0 512 512"><circle cx="256" cy="256" r="256" fill="#eee"/><path fill="#0052b4" d="M510.5 283.8L229.7 1.3a255.2 255.2 0 0 0-37 6.6C81.8 36.1 1 256 1 256s357.4 239.8 398.3 212.2c8.2-5.5 16-11.6 23.5-18L256.4 283.8h254z"/><path fill="#d80027" d="M445.2 256L196.2 7a256 256 0 1 0 204.3 460.3L189.2 256h256z"/><path fill="#eee" d="M243.5 378l-31.3-14.7L229 333l-34 6.5-4.3-34.3-23.6 25.2-23.7-25.2-4.3 34.3-34-6.5 16.7 30.3L90.4 378l31.3 14.7-16.6 30.3 34-6.5 4.2 34.3 23.7-25.2 23.6 25.2 4.3-34.3 34 6.5-16.7-30.3zM149.8 89l-3.2 25-24.7-4.7 12.1 22-22.7 10.7h-11.1a66.8 66.8 0 0 0 133.5 0h-11.1L200 131.3l12-22-24.6 4.7-3.1-25-17.2 18.4z"/></svg>