<svg xmlns="http://www.w3.org/2000/svg" viewBox="0 0 512 512"><circle cx="256" cy="256" r="256" fill="#0052b4"/><circle cx="256" cy="256" r="256" fill="#ffda44"/><path fill="#0052b4" d="M256 0A256 256 0 0 0 1 233.7h510A256 256 0 0 0 256 0zm0 512a256 256 0 0 0 255-233.7H1A256 256 0 0 0 256 512z"/><path fill="#eee" d="M211.5 345l-28.7 13.5 15.3 27.8-31.2-6-4 31.5-21.6-23.1-21.7 23.1-4-31.4-31.1 6 15.3-27.9L71 345l28.7-13.4-15.3-27.8 31.1 6 4-31.5 21.7 23.1 21.7-23.1 4 31.4 31-6-15.2 27.9z"/></svg>