<svg xmlns="http://www.w3.org/2000/svg" viewBox="0 0 512 512"><circle cx="256" cy="256" r="256" fill="#eee"/><g fill="#d80027"><path d="M0 256c0 97 54 181.5 133.6 224.9V31A256 256 0 0 0 0 256z"/><path d="M496 345a255.4 255.4 0 0 0 0-178H16a255.4 255.4 0 0 0 0 178l240 22.3L496 345z"/></g><path fill="#6da544" d="M256 512a256 256 0 0 0 240-167H16a256 256 0 0 0 240 167z"/><path fill="#d80027" d="M0 256a256 256 0 0 0 189.2 247.2V8.8A256 256 0 0 0 0 256z"/><path fill="#eee" d="M156.6 112.7L133 89l-15.7 15.8L101.5 89 78 112.7l15.8 15.7L77.9 144l23.6 23.6 15.8-15.7 15.7 15.7 23.6-23.6-15.7-15.7z"/></svg>