<svg xmlns="http://www.w3.org/2000/svg" viewBox="0 0 512 512"><path fill="#333" d="M437 437A256 256 0 0 1 75 75C175-25 321.3-9.3 421.3 90.7S537 337 437 437z"/><path fill="#a2001d" d="M75 75a256 256 0 0 1 362 362"/><path fill="#eee" d="M195.6 345l4.2 12.8h13.4l-10.9 7.9 4.2 12.7-10.9-7.8-10.8 7.8 4.1-12.7-10.8-7.9h13.4zm-34.2-122.4l6.9 21.3h22.3l-18 13.1 6.9 21.3-18.1-13.2-18 13.2 6.8-21.3-18-13.1h22.3zm0 155.8l6.9 21.3h22.3l-18 13.1 6.9 21.3-18.1-13.2-18 13.2 6.8-21.3-18-13.1h22.3zm65.3-100.1l7 21.2H256l-18 13.2 6.8 21.2-18-13.1-18.1 13.1 6.9-21.2-18.1-13.2h22.3zm-130.7 0l7 21.2h22.3l-18 13.2 6.8 21.2-18-13.1L78 333.9l6.9-21.2-18.1-13.2H89z"/><path fill="#ffda44" d="M428.5 189.6a66.3 66.3 0 0 0-42.2-19.4L434 133a88.8 88.8 0 0 0-69.5-25.8 66.5 66.5 0 0 0-17-29.3l-19 37.8a27.8 27.8 0 0 0-4.7-6.3 27.8 27.8 0 1 0-39.3 39.3 27.8 27.8 0 0 0 6.2 4.8L253 172.4a66.5 66.5 0 0 0 29.3 17 88.8 88.8 0 0 0 25.8 69.5l41.7-53.7a16.6 16.6 0 0 1 11.8-4.8c4.4 0 8.6 1.7 11.8 4.9a16.6 16.6 0 0 1 4.8 11.8c0 4.5-1.7 8.7-4.8 11.8l15.7 15.8a38.7 38.7 0 0 0 3.7-50.9 44.2 44.2 0 0 1 20 11.5 44.6 44.6 0 0 1 0 63l15.7 15.7a66.4 66.4 0 0 0 0-94.4z"/></svg>