<svg xmlns="http://www.w3.org/2000/svg" viewBox="0 0 512 512"><circle cx="256" cy="256" r="256" fill="#eee"/><path fill="#d80027" d="M256 0v256L75 437a256 256 0 0 0 437-181C512 114.6 256 0 256 0z"/><path fill="#0052b4" d="M256 0A255.2 255.2 0 0 0 75 75l181 181h256A256 256 0 0 0 256 0z"/><path fill="#ffda44" d="M175.3 256L144 241.3l16.7-30.3-34 6.5-4.3-34.3-23.6 25.2L75 183.2l-4.3 34.3-34-6.5 16.7 30.3L22.3 256l31.2 14.7L37 301l34-6.5 4.2 34.3 23.7-25.2 23.6 25.2 4.3-34.3 34 6.5-16.7-30.3zm-107-155.8l10.4 14.5 17-5.4-10.6 14.4 10.4 14.5-17-5.6L68 147l.2-17.9-17-5.6 17-5.4zm0 264.8l10.4 14.6 17-5.4-10.6 14.3 10.4 14.6-17-5.7L68 411.8l.2-17.9-17-5.6 17-5.4zm148.4-132.4L206.3 247l-17-5.4 10.5 14.4-10.4 14.6 17-5.7 10.6 14.4-.1-17.9 17-5.6-17.1-5.4z"/></svg>