<svg xmlns="http://www.w3.org/2000/svg" viewBox="0 0 512 512"><path fill="#496e2d" d="M437 437a256 256 0 0 0 11.4-349.8L256 256 87.2 448.4A256 256 0 0 0 437 437z"/><path fill="#0052b4" d="M75 75a256 256 0 0 1 349.8-11.4L256 256 63.6 424.8A256 256 0 0 1 75 75z"/><path fill="#ffda44" d="M424.8 63.6L63.6 424.8A258.5 258.5 0 0 0 75 437a260.2 260.2 0 0 0 12.2 11.4L448.4 87.2A259 259 0 0 0 437 75a259.5 259.5 0 0 0-12.2-11.4z"/><path fill="#eee" d="M107.9 89l5.5 17h17.9l-14.5 10.6 5.5 17L108 123l-14.5 10.6 5.5-17L84.5 106h17.8zm91.3 0l5.5 17h18L208 116.6l5.6 17-14.5-10.6-14.5 10.6 5.6-17-14.5-10.6h17.9zm-91.3 89l5.5 17h17.9l-14.5 10.6 5.5 17-14.4-10.5-14.5 10.5 5.5-17-14.4-10.5h17.8zm91.3 0l5.5 17h18L208 205.7l5.6 17-14.5-10.5-14.5 10.5 5.6-17-14.5-10.5h17.9zm-45.7-44.4l5.6 17h17.8L162.5 161l5.5 17-14.5-10.5-14.4 10.5 5.5-17-14.5-10.5H148z"/></svg>