<svg xmlns="http://www.w3.org/2000/svg" viewBox="0 0 512 512"><circle cx="256" cy="256" r="256" fill="#eee"/><path fill="#ffda44" d="M428.8 67.1a255 255 0 0 0-205-65L100.2 144.6 8 320.1c6 23 15 44.9 26.8 65L256 256 428.8 67.1z"/><path fill="#6da544" d="M469.1 397.8L111 467a255.7 255.7 0 0 0 358.2-69.1z"/><path fill="#d80027" d="M428.8 67.2L35 385.3a257 257 0 0 0 36.7 48.4L512 256c0-74.8-32-142-83.2-188.8z"/><path fill="#0052b4" d="M0 256c0 22.1 2.8 43.6 8.1 64.1l215.7-318A256 256 0 0 0 0 256z"/></svg>