<svg xmlns="http://www.w3.org/2000/svg" viewBox="0 0 512 512"><path fill="#eee" d="M496 345a255.5 255.5 0 0 0 0-178l-240-22.3L16 167a255.5 255.5 0 0 0 0 178l240 22.3L496 345z"/><path fill="#d80027" d="M256 512a256 256 0 0 0 240-167H16a256 256 0 0 0 240 167z"/><path fill="#496e2d" d="M256 0A256 256 0 0 0 16 167h480A256 256 0 0 0 256 0z"/><path fill="#333" d="M256 200.3l13.8 42.6h44.7L278.4 269l13.8 42.6-36.2-26.3-36.2 26.3 13.8-42.6-36.1-26.2h44.7z"/><g fill="#eee"><path d="M332 50v52c0 8.2-6.6 14.9-14.8 14.9V139a37.1 37.1 0 0 0 37.1-37V50h-22.2zm-159.5 52c0 8.2-6.6 14.9-14.8 14.9V139a37.1 37.1 0 0 0 37-37V50h-22.2v52z"/><path d="M298.7 50h22.2v52h-22.2zm-33.4 29.8a3.7 3.7 0 0 1-3.7 3.7 3.7 3.7 0 0 1-3.7-3.7V50h-22.3v29.7a3.7 3.7 0 0 1-3.7 3.7 3.7 3.7 0 0 1-3.7-3.7V50h-22.3v29.7a26 26 0 0 0 26 26 25.8 25.8 0 0 0 14.8-4.7 25.8 25.8 0 0 0 14.9 4.6c1 0 2.2 0 3.2-.2a14.9 14.9 0 0 1-14.4 11.4V139a37.1 37.1 0 0 0 37.1-37V50h-22.2v29.7z"/><path d="M206 116.9h33.3V139h-33.4z"/></g></svg>