<svg xmlns="http://www.w3.org/2000/svg" viewBox="0 0 512 512"><circle cx="256" cy="256" r="256" fill="#eee"/><path fill="#333" d="M492 156.8A256 256 0 0 0 75 75l64.1 81.8h353z"/><path fill="#496e2d" d="M139.8 354.3L75 437a256 256 0 0 0 417.4-82.7H139.8z"/><path fill="#a2001d" d="M55.7 188.3v134.5h447.5a256.1 256.1 0 0 0-.3-134.5H55.7z"/><path fill="#0052b4" d="M75 75a256 256 0 0 0 0 362l181-181L75 75z"/><path fill="#ffda44" d="M83.4 192.4l31.2 43.6 51.2-16.3-31.9 43.2 31.3 43.6-51-16.9-31.7 43.2.3-53.7L32 262.2 83 246z"/></svg>