<svg xmlns="http://www.w3.org/2000/svg" viewBox="0 0 512 512"><circle cx="256" cy="256" r="256" fill="#eee"/><path fill="#0052b4" d="M256 0A256 256 0 0 0 25.4 144.7h461.2A256 256 0 0 0 256 0zm0 512a256 256 0 0 0 230.6-144.7H25.4A256 256 0 0 0 256 512z"/><path fill="#ffda44" d="M204.6 267.1l51.4-89 51.4 89z"/><path fill="#6da544" d="M322.8 296.5L256 330l-66.8-33.4V252h133.6z"/><path fill="#ffda44" d="M319 182l-23.6 23.5a55.5 55.5 0 0 1-39.4 95 55.7 55.7 0 0 1-39.3-95L193 182a89 89 0 1 0 126 0z"/></svg>