<svg xmlns="http://www.w3.org/2000/svg" viewBox="0 0 512 512"><path fill="#ffda44" d="M486.6 367.3C502.9 333.6 512 295.9 512 256s-9.1-77.6-25.4-111.3L256 133.6 25.4 144.7C9.1 178.4 0 216 0 256s9.1 77.6 25.4 111.3L256 378.4l230.6-11.1z"/><path fill="#333" d="M256 0A256 256 0 0 0 25.4 144.7h461.2A256 256 0 0 0 256 0z"/><path fill="#0052b4" d="M256 512A256 256 0 0 1 25.4 367.3h461.2A256 256 0 0 1 256 512z"/><path fill="#a2001d" d="M500 178H12a255.8 255.8 0 0 0 0 156h488a255.8 255.8 0 0 0 0-156z"/><path fill="#ffda44" d="M89 244.9h334V267H89zm44.6-44.6h244.8v22.3H133.6z"/><path fill="#eee" d="M380 256s-57.2 66.8-124 66.8-66.8-66.8-66.8-66.8 0-66.8 66.8-66.8S380 256 380 256z"/><path fill="#333" d="M256 322.8c-66.8 0-124-66.8-124-66.8s57.2-66.8 124-66.8"/><path fill="#eee" d="M211.5 233.7h22.2v44.6h-22.2z"/><path fill="#333" d="M278.3 233.7h22.2v44.6h-22.2z"/><g fill="#0052b4"><circle cx="89" cy="256" r="22.3"/><circle cx="423" cy="256" r="22.3"/></g></svg>