<svg xmlns="http://www.w3.org/2000/svg" viewBox="0 0 512 512"><circle cx="256" cy="256" r="256" fill="#ffda44"/><path fill="#496e2d" d="M256 0c-.2 0-11.1 102.4-11.1 102.4h216A255.6 255.6 0 0 0 256 0zm0 512c83.8 0 158.1-40.2 204.8-102.4H51.2A255.6 255.6 0 0 0 256 512zm250.9-307.2h-262L256 307.2h250.9a257 257 0 0 0 0-102.4z"/><path fill="#d80027" d="M256 307.2V0A256 256 0 0 0 5.1 307.2H256z"/><path fill="#eee" d="M141.3 122.4l16.5 51h53.7L168 205l16.6 51-43.4-31.5L97.9 256l16.5-51L71 173.5h53.7z"/></svg>