<svg xmlns="http://www.w3.org/2000/svg" viewBox="0 0 512 512"><circle cx="256" cy="256" r="256" fill="#eee"/><path fill="#ffda44" d="M111.7 44.5a255.6 255.6 0 0 1 288.6 0L256 55.7 111.7 44.5z"/><path fill="#d80027" d="M75 437l118-118 63-107.5L319 319l118 118a255.7 255.7 0 0 0-36.7-392.5H111.7A255.7 255.7 0 0 0 75 437z"/><path fill="#0052b4" d="M492.6 354l-187.2-77.5 13.5 42.4L437 437a256.4 256.4 0 0 0 55.6-83zm19.4-98c0-34.7-7-67.8-19.4-98L256 256h256zM437 75a257.4 257.4 0 0 0-36.7-30.5h-56.7L256 256 437 75zM256 44.5h-87.6L256 256zM75 75a256.4 256.4 0 0 0-55.6 83L256 256 75 75zM0 256c0 34.7 7 67.8 19.4 98L256 256H0z"/><path fill="#ffda44" d="M111.7 467.5a255.6 255.6 0 0 0 288.6 0H111.7zM256 256l63 63a89 89 0 1 0-126 0l63-63zm39 128c0 21.5-17.5 27.8-39 27.8s-39-6.3-39-27.8a39 39 0 0 1 78 0z"/><path fill="#0052b4" d="M295 384a39 39 0 0 1-78 0"/></svg>