<svg xmlns="http://www.w3.org/2000/svg" viewBox="0 0 512 512"><path fill="#eee" d="M25.4 144.7C9.1 178.4 0 216.1 0 256s9.1 77.6 25.4 111.3L256 389.6l230.6-22.3C502.9 333.6 512 295.9 512 256s-9.1-77.6-25.4-111.3L256 122.4 25.4 144.7z"/><path fill="#6da544" d="M25.4 367.3a256 256 0 0 0 461.2 0H25.4z"/><path fill="#d80027" d="M25.4 144.7h461.2a256 256 0 0 0-461.2 0z"/><path fill="#ffda44" d="M211.5 322.8h89v-37.9l-17.8 9L256 267l-26.7 26.7-17.8-8.9zm-51-44.5l4.2 12.7H178l-10.9 7.9 4.2 12.8-10.9-8-10.8 8 4.1-12.8L143 291h13.4zm12.9-44.6l4.1 12.8H191l-10.8 7.9 4.1 12.7-10.8-7.9-10.9 8 4.2-12.8-10.9-8h13.4zm36.7-33.4l4.2 12.8h13.4l-10.9 7.9 4.2 12.7-11-7.7-10.8 7.8 4.1-12.7-10.8-7.9H206zm141.4 78l-4.2 12.7H334l10.9 7.9-4.2 12.8 10.9-8 10.8 8-4.1-12.8L369 291h-13.4zm-12.9-44.6l-4.1 12.8H321l10.8 7.9-4.1 12.7 10.8-7.9 10.9 8-4.2-12.8 10.9-8h-13.4zM302 200.3l-4.2 12.8h-13.4l10.9 7.9-4.2 12.7L302 226l10.8 7.8-4.1-12.7 10.8-7.9H306zm-46-16.6l4.1 12.7h13.5l-10.9 7.9 4.1 12.7-10.8-7.8-10.8 7.8 4.1-12.7-10.9-7.9H252z"/></svg>