<svg xmlns="http://www.w3.org/2000/svg" viewBox="0 0 512 512"><circle cx="256" cy="256" r="256" fill="#ffda44"/><path fill="#0052b4" d="M411.8 122.4c-2.3 11-3.3 22.8-3.3 34.5 0 67.6 40.2 126 98 152.3A257 257 0 0 0 512 256a256 256 0 1 0-44.8 144.7H144.7v-33.4h341.9a255 255 0 0 0 9.5-22.3H144.7l267.1-222.6z"/><path fill="#eee" d="M188 133.6l5.6 17h17.9L197 161l5.5 17-14.4-10.5-14.5 10.5 5.5-17-14.4-10.5h17.8zM115.5 256l7 21.3h22.3l-18 13 6.8 21.4-18-13.2-18.1 13.2 6.9-21.3-18.1-13.1h22.3zm0-178l7 21.2h22.3l-18 13.1 6.8 21.3-18-13.2-18.1 13.2 6.9-21.3-18.1-13.1h22.3zM59.8 178l6.9 21.3H89l-18 13.2 6.9 21.2-18.1-13.1-18.1 13.1 7-21.2-18.2-13.2H53z"/></svg>