<svg xmlns="http://www.w3.org/2000/svg" viewBox="0 0 512 512"><path fill="#496e2d" d="M256 0a256.9 256.9 0 0 0-55.7 6l-11 250 11 250a256.9 256.9 0 0 0 55.7 6 256 256 0 0 0 0-512zM66.8 83.6C25.3 129 0 189.6 0 256s25.3 127 66.8 172.4L77.9 256 66.8 83.6z"/><g fill="#eee"><path d="M374.4 193.1a78 78 0 0 0-31.9-92.3 78.2 78.2 0 0 1 16.3 4 78 78 0 1 1-52.6 146.6 78.1 78.1 0 0 1-15.1-7.3 78 78 0 0 0 83.3-51zm-69.8-102l-11 14.2-16.8-6 10 14.8-10.9 14 17.2-5 10 14.9.6-18 17.2-5-16.9-6z"/><path d="M334.1 137.3l-11 14-16.8-6 10.1 14.8-11 14.2 17.2-5 10.1 14.7.5-17.8 17.2-5-16.8-6zM252.5 108l-11 14.1-16.8-6 10 14.7-10.9 14.2 17.2-5 10 14.7.6-17.8 17.1-5-16.8-6zm-1.2 52.7l-11 14.2-16.8-6 10 14.7-10.9 14.2 17.2-5 10 14.7.6-17.8 17.1-5-16.8-6zm50.2 18l-11 14.2-16.8-6 10 14.7-10.9 14.2 17.2-5 10 14.7.6-17.8 17.2-5-16.9-6z"/></g><path fill="#d80027" d="M66.8 83.6v344.8A255.7 255.7 0 0 0 200.3 506V6.1A255.7 255.7 0 0 0 66.8 83.6z"/><path fill="#eee" d="M117.8 134.8L95.4 118V94.6l22.4-16.7h31.6l22.3 16.7V118l-22.3 16.7z"/><path fill="#ff9811" d="M133.6 78h-15.8L95.4 94.5V106h38.2zm0 56.8h15.8l22.3-16.7v-12h-38.1z"/><path fill="#eee" d="M117.8 434l-22.4-16.6V394l22.4-16.7h31.6l22.3 16.7v23.5l-22.3 16.7z"/><path fill="#ff9811" d="M133.6 377.2h-15.8L95.4 394v11.5h38.2zm0 56.9h15.8l22.3-16.7v-12h-38.1z"/><path fill="#496e2d" d="M117.8 284.4l-22.4-16.6v-23.6l22.4-16.6h31.6l22.3 16.6v23.6l-22.3 16.6zm54.7 36.7h-9.7v-9.8h-17.1l-12.1-12-12.1 12h-17.2v9.8h-9.7v19.5h9.7v9.7h17.2l12 12.1 12.2-12.1h17v-9.7h9.8zm0-149.7h-9.7v-9.7h-17.1l-12.1-12.1-12.1 12h-17.2v9.8h-9.7V191h9.7v9.8h17.2l12 12 12.2-12h17V191h9.8z"/><g fill="#d80027"><path d="M122.4 244.9h22.3V267h-22.3z"/><circle cx="133.6" cy="181.2" r="11.1"/><circle cx="133.6" cy="330.8" r="11.1"/></g></svg>