<svg xmlns="http://www.w3.org/2000/svg" viewBox="0 0 512 512"><path fill="#eee" d="M138.6 28.4A255.8 255.8 0 0 0 28.4 138.6L193 319l180.4 164.6a255.9 255.9 0 0 0 110.2-110.2L319 193 138.6 28.4z"/><path fill="#333" d="M437 437a257.6 257.6 0 0 0 28.8-34.2L109.2 46.2a257.5 257.5 0 0 0-63 63l356.6 356.6A257.5 257.5 0 0 0 437 437z"/><path fill="#d80027" d="M75 437a256.1 256.1 0 0 0 298.4 46.6l-345-345A256.1 256.1 0 0 0 75 437zM437 75a256.1 256.1 0 0 0-298.4-46.6l345 345A256.1 256.1 0 0 0 437 75z"/></svg>