<svg xmlns="http://www.w3.org/2000/svg" viewBox="0 0 512 512"><path fill="#d80027" d="M512 256a256 256 0 0 1-512 0L256 0a256 256 0 0 1 256 256z"/><path fill="#0052b4" d="M256 256V0A256 256 0 0 0 0 256h256z"/><path fill="#eee" d="M222.6 149.8l-31.3 14.7 16.7 30.3-34-6.5-4.3 34.3-23.6-25.2-23.7 25.2-4.3-34.3-34 6.5 16.7-30.3-31.2-14.7 31.2-14.7-16.6-30.3 34 6.5 4.2-34.3 23.7 25.3L169.7 77l4.3 34.3 34-6.5-16.7 30.3z"/><circle cx="146.1" cy="149.8" r="47.7" fill="#0052b4"/><path fill="#eee" d="M146 175.2a25.4 25.4 0 1 1 .2-50.8 25.4 25.4 0 0 1-.1 50.8z"/></svg>