<svg xmlns="http://www.w3.org/2000/svg" viewBox="0 0 512 512"><path fill="#ffda44" d="M446.8 426.7C487.3 381.4 512 321.6 512 256s-24.7-125.4-65.2-170.7L256 66.8 65.2 85.3C24.7 130.6 0 190.4 0 256s24.7 125.4 65.2 170.7L256 445.2l190.8-18.5z"/><path fill="#333" d="M65.2 85.3h381.6C399.9 33 331.8 0 256 0S112 33 65.2 85.3z"/><path fill="#d80027" d="M0 256l256 22.3L512 256c0-30-5.2-58.6-14.6-85.3H14.6A255.5 255.5 0 0 0 0 256z"/><path fill="#333" d="M14.6 341.3h482.8A255.6 255.6 0 0 0 512 256H0c0 30 5.2 58.6 14.6 85.3z"/><path fill="#d80027" d="M446.8 426.7H65.2C112.1 479 180.2 512 256 512s144-33 190.8-85.3z"/><path fill="#eee" d="M341.4 256a85.4 85.4 0 1 1-170.8 0 85.4 85.4 0 0 1 170.8 0z"/><path fill="#333" d="M287.3 260.4L256 246.8l7.7-26a16.6 16.6 0 0 0-4.4-15.6l7.8-7.8a27.7 27.7 0 0 0-19.6-8.2 27.7 27.7 0 0 0-19.7 8.2l7.8 7.8a16.6 16.6 0 0 0-4.8 11.8c0 1.7.2 3.4.7 4.9l-11.9 11.8h21.6s-9 13.4-13.8 24.4c-4.9 11 0 24.4 11.3 29.4l6.5 2.9 10.8 10.1v11.2l-11.1 11H267v-22.2l10.2-10.1h21l.3-.7a22 22 0 0 0-11.3-29.3z"/></svg>