<svg xmlns="http://www.w3.org/2000/svg" viewBox="0 0 512 512"><circle cx="256" cy="256" r="256" fill="#338af3"/><circle cx="256" cy="256" r="145" fill="#eee"/><circle cx="256" cy="256" r="111" fill="#338af3"/><path fill="#338af3" d="M76 76h360L256 256z"/><circle cx="256" cy="256" r="89" fill="#eee"/><circle cx="256" cy="256" r="69" fill="#338af3"/><path fill="#eee" d="M246 178h20v156h-20z"/><path fill="#eee" d="M334 246v20H178v-20z"/><path fill="#eee" d="M304 193.7l14.2 14.2-110.3 110.3-14.2-14.1z"/><path fill="#eee" d="M318.2 304l-14.1 14.2-110.4-110.3 14.2-14.2z"/><circle cx="256" cy="256" r="44" fill="#eee"/><circle cx="256" cy="256" r="22" fill="#338af3"/><ellipse cx="256" cy="412" fill="#eee" rx="44" ry="40"/><path fill="#338af3" d="M256 407l-78 63h156z"/></svg>