<svg xmlns="http://www.w3.org/2000/svg" viewBox="0 0 512 512"><circle cx="256" cy="256" r="256" fill="#eee"/><path fill="#d80027" d="M256 512a255 255 0 0 0 169.3-64H86.7A255 255 0 0 0 256 512z"/><path fill="#0052b4" d="M8 320a254.4 254.4 0 0 0 26.3 64h443.4a254.4 254.4 0 0 0 26.2-64L256 300.5 8 320zm496-128a254.4 254.4 0 0 0-26.3-64L256 122.4V0c-19 0-37.6 2-55.4 6-.3 0-167.2 131.7-167.2 250 4.3.7 222.6 22.3 222.6 22.3V192h248z"/><path fill="#eee" d="M256 159.7v-128h-81L200.5 6a256.2 256.2 0 0 0-199 220.8A258.6 258.6 0 0 0 0 256h129.7v-51l51.5 51h91.6l-97.9-96.3H256z"/><path fill="#d80027" d="M256.1 256l-96.3-96.3h-30.1l96.2 96.3H97.4V128h380.3a258.7 258.7 0 0 0-52.4-64h-328v-9a257.2 257.2 0 0 0-64 74.6V256H0c0 22.1 2.8 43.5 8 64h496c5.2-20.5 8-41.9 8-64H256.1z"/></svg>