<svg xmlns="http://www.w3.org/2000/svg" viewBox="0 0 512 512"><circle cx="256" cy="256" r="256" fill="#eee"/><path fill="#d80027" d="M244.9 256H512c0-23.1-3-45.5-8.8-66.8H244.9V256zm0-133.6h229.5a257.4 257.4 0 0 0-59-66.7H244.9v66.7zM256 512c60.2 0 115.6-20.8 159.4-55.7H96.6A254.9 254.9 0 0 0 256 512zM37.6 389.6h436.8a254.5 254.5 0 0 0 28.8-66.8H8.8a254.5 254.5 0 0 0 28.8 66.8z"/><path fill="#0052b4" d="M118.6 40h23.3l-21.7 15.7 8.3 25.6-21.7-15.8-21.7 15.8 7.2-22a257.4 257.4 0 0 0-49.7 55.3h7.5l-13.8 10a255.6 255.6 0 0 0-6.2 11l6.6 20.2-12.3-9a253.6 253.6 0 0 0-8.4 20l7.3 22.3H50L28.4 205l8.3 25.5L15 214.6l-13 9.5A258.5 258.5 0 0 0 0 256h256V0c-50.6 0-97.7 14.7-137.4 40zm9.9 190.4l-21.7-15.8-21.7 15.8 8.3-25.5L71.7 189h26.8l8.3-25.5 8.3 25.5h26.8l-21.7 16 8.3 25.5zm-8.3-100l8.3 25.4-21.7-15.7-21.7 15.7 8.3-25.5-21.7-15.7h26.8l8.3-25.6 8.3 25.6h26.8l-21.7 15.7zm100.1 100l-21.7-15.8-21.7 15.8 8.3-25.5-21.7-15.8h26.8l8.3-25.5 8.3 25.5h26.8L212 205l8.3 25.5zm-8.3-100l8.3 25.4-21.7-15.7-21.7 15.7 8.3-25.5-21.7-15.7h26.8l8.3-25.6 8.3 25.6h26.8L212 130.3zm0-74.7l8.3 25.6-21.7-15.8L177 81.3l8.3-25.6L163.5 40h26.8l8.3-25.5L207 40h26.8L212 55.7z"/></svg>