<svg xmlns="http://www.w3.org/2000/svg" viewBox="0 0 512 512"><circle cx="256" cy="256" r="256" fill="#eee"/><path fill="#338af3" d="M256 189.2h247.2a254.6 254.6 0 0 0-28.8-66.8H256v66.8zM96.6 456.3h318.8a257.3 257.3 0 0 0 59-66.7H37.6a257.3 257.3 0 0 0 59 66.7zM256 0v55.7h159.4A254.9 254.9 0 0 0 256 0z"/><path fill="#338af3" d="M256 189.2h247.2a254.6 254.6 0 0 0-28.8-66.8H256v66.8zM0 256c0 23.1 3 45.5 8.8 66.8h494.4c5.7-21.3 8.8-43.7 8.8-66.8H0z"/><path fill="#ffda44" d="M222.6 149.8l-31.3 14.7 16.7 30.3-34-6.5-4.3 34.3-23.6-25.2-23.7 25.2-4.3-34.3-33.9 6.5 16.6-30.3-31.2-14.7 31.2-14.7-16.6-30.3 34 6.5 4.2-34.3 23.7 25.3L169.7 77l4.3 34.3 34-6.5-16.7 30.3z"/></svg>