<svg xmlns="http://www.w3.org/2000/svg" viewBox="0 0 512 512"><path fill="#eee" d="M12 178a255.8 255.8 0 0 0 0 156l244 11 244-11a255.8 255.8 0 0 0 0-156l-244-11-244 11z"/><path fill="#d80027" d="M500 178l-244-11-244 11a255.5 255.5 0 0 0-6 22.3h500a254.5 254.5 0 0 0-6-22.2zM6 311.8a254.7 254.7 0 0 0 6 22.2h.1L256 345l244-11a255.1 255.1 0 0 0 6-22.3H6z"/><path fill="#6da544" d="M256 512c114.2 0 211-74.8 244-178H12a256.1 256.1 0 0 0 244 178z"/><path fill="#338af3" d="M256 0C141.8 0 45 74.8 12 178h488A256 256 0 0 0 256 0z"/><path fill="#eee" d="M117 105.7a50 50 0 0 1 39.3-48.9 50.2 50.2 0 0 0-10.7-1.1 50 50 0 1 0 10.7 99c-22.5-5-39.3-25-39.3-49zm69 22.8l3.3 10.4h11l-8.9 6.5 3.4 10.4-8.9-6.4-8.8 6.4 3.4-10.4-9-6.5h11zm35 0l3.4 10.4h11l-9 6.5 3.4 10.4-8.8-6.4-9 6.4 3.5-10.4-8.9-6.5h11zm35 0l3.4 10.4h11l-9 6.5 3.5 10.4-9-6.4-8.8 6.4 3.4-10.4-8.9-6.5h11zm35 0l3.4 10.4h11l-9 6.5 3.5 10.4-8.9-6.4-8.9 6.4 3.4-10.4-8.9-6.5h11zm35 0l3.4 10.4h11l-8.9 6.5 3.4 10.4-8.9-6.4-8.9 6.4 3.4-10.4-8.8-6.5h11zM221 92.1l3.4 10.4h11l-9 6.5 3.4 10.4-8.8-6.5-9 6.5 3.5-10.4-8.9-6.5h11zm35 0l3.4 10.4h11l-9 6.5 3.5 10.4-9-6.5-8.8 6.5 3.4-10.4-8.9-6.5h11zm35 0l3.4 10.4h11l-9 6.5 3.5 10.4-8.9-6.5-8.9 6.5 3.4-10.4-8.9-6.5h11zm35 0l3.4 10.4h11l-8.9 6.5 3.4 10.4-8.9-6.5-8.9 6.5 3.4-10.4-8.8-6.5h11zm-70-36.4l3.4 10.4h11l-9 6.4L265 83l-9-6.5-8.8 6.5 3.4-10.5-8.9-6.4h11zm35 0l3.4 10.4h11l-9 6.4L300 83l-8.9-6.5-8.9 6.5 3.4-10.5-8.9-6.4h11zm35 0l3.4 10.4h11l-8.9 6.4L335 83l-8.9-6.5-8.9 6.5 3.4-10.5-8.8-6.4h11z"/></svg>