<svg xmlns="http://www.w3.org/2000/svg" viewBox="0 0 512 512"><path fill="#eee" d="M256 0a256 256 0 0 1 0 512c0-11.1-33.4-256-33.4-256L256 0z"/><path fill="#ffda44" d="M256 512a256 256 0 0 1 0-512"/><path fill="#acabb1" d="M354 222.8l48.1 63.6A33.4 33.4 0 1 0 420 273l-75-99.2-17.7 13.4-26.7 20.2 26.9 35.5 26.6-20.1zm69.3 73.1a11.1 11.1 0 1 1 13.4 17.8 11.1 11.1 0 0 1-13.4-17.8z"/><path fill="#ffda44" d="M436.6 242.9l26.8-35.5-26.6-20.2-17.8-13.4-75 99.2a33.4 33.4 0 1 0 17.8 13.4l48-63.6 26.8 20zm-93.8 68.6a11.1 11.1 0 1 1-17.8-13.4 11.1 11.1 0 0 1 17.8 13.4z"/></svg>