<svg xmlns="http://www.w3.org/2000/svg" viewBox="0 0 512 512"><path fill="#ffda44" d="M378.4 31.1C342.1 11.3 300.4 0 256 0s-86 11.3-122.4 31.1L111.3 256l22.3 224.9c36.3 19.8 78 31.1 122.4 31.1s86-11.3 122.4-31.1L400.7 256 378.4 31.1z"/><path fill="#338af3" d="M133.6 480.9V31a256 256 0 0 0 0 449.8z"/><path fill="#6da544" d="M512 256c0-97-54-181.5-133.6-224.9V481A256 256 0 0 0 512 256zm-311.7 66.8L155.8 256l44.5-66.8L245 256zm111.4 0L267 256l44.6-66.8 44.5 66.8zm-55.7 89L211.5 345l44.5-66.7 44.5 66.7z"/></svg>