<svg xmlns="http://www.w3.org/2000/svg" viewBox="0 0 512 512"><path fill="#0052b4" d="M486.6 367.3C502.9 333.6 512 295.9 512 256s-9.1-77.6-25.4-111.3L256 122.4 25.4 144.7C9.1 178.4 0 216.1 0 256s9.1 77.6 25.4 111.3L256 389.6l230.6-22.3z"/><path fill="#d80027" d="M256 512a256 256 0 0 0 230.6-144.7H25.4A256 256 0 0 0 256 512z"/><path fill="#eee" d="M443.4 306.3l-13.6 10.5 6 16.1-14.3-9.6L408 334l4.7-16.5-14.2-9.6 17.1-.6 4.7-16.5 6 16.1zm-34.7-60l-9 14.5 11 13.2-16.7-4.2-9 14.6-1.3-17.1-16.6-4.2 15.9-6.4-1.2-17.1 11 13.1zm-53-44.5l-3.6 16.8L367 227l-17 1.8-3.6 16.8-7-15.7-17 1.8 12.7-11.5-7-15.6 14.8 8.6zm-65-23.7l2.3 17 17 3-15.5 7.5 2.4 17-12-12.4-15.4 7.6 8-15.2-11.8-12.3 16.9 3zm-69.3 0l8 15.1 17-3-12 12.4 8 15.2-15.4-7.6-11.9 12.4 2.4-17-15.4-7.5 16.9-3zm-65 23.7l12.7 11.5 14.8-8.6-7 15.7 12.8 11.4-17-1.8-7 15.7L162 229l-17-1.8 14.8-8.5zm-53.1 44.5l15.9 6.4 11-13.1-1.2 17 16 6.5-16.7 4.2-1.2 17-9.1-14.5-16.7 4.2 11-13.2zm-34.7 60l17.2.5 5.9-16 4.7 16.4 17.1.6-14.2 9.6L104 334l-13.5-10.6-14.2 9.6 5.9-16z"/><path fill="#ffda44" d="M486.6 144.7a256 256 0 0 0-461.2 0h461.2z"/></svg>