<svg xmlns="http://www.w3.org/2000/svg" viewBox="0 0 512 512"><path fill="#0052b4" d="M512 256a256 256 0 0 1-512 0L256 0a256 256 0 0 1 256 256z"/><g fill="#eee"><path d="M256 0zm-.7 256h.7v-.7l-.7.7z"/><path d="M256 133.6V0A256 256 0 0 0 0 256h133.6v-75.2l75.2 75.2h46.5l.7-.7v-46.5l-75.2-75.2H256z"/></g><path fill="#d80027" d="M129.5 33.4a257.2 257.2 0 0 0-96.1 96.1V256h66.8V100.2H256V33.4H129.5z"/><path fill="#ffda44" d="M367.3 256l-69.2 69.2a77.9 77.9 0 0 0 138.4 0L367.3 256z"/><path fill="#d80027" d="M256 224.5l-91-91h-31.4L256 256v-31.5z"/><path fill="#6da544" d="M289.4 133.6V256c0 59.6 77.9 78 77.9 78s78-18.4 78-78V133.6h-156z"/><path fill="#496e2d" d="M445.2 256zm-155.8 0z"/><path fill="#eee" d="M350.6 189.2H384v89h-33.4z"/><circle cx="367.3" cy="189.2" r="16.7" fill="#a2001d"/><path fill="#ffda44" d="M311.7 155.8h22.2v22.3h-22.2zm0 50.1h22.2v22.3h-22.2zm0 50.1h22.2v22.3h-22.2zm89-100.2H423v22.3h-22.3zm0 50.1H423v22.3h-22.3zm0 50.1H423v22.3h-22.3z"/></svg>