<svg xmlns="http://www.w3.org/2000/svg" viewBox="0 0 512 512"><path fill="#333" d="M512 256a258.4 258.4 0 0 0-2.2-33.4H222.6L75 75a256 256 0 0 0 0 362l147.6-147.6h287.2A258.6 258.6 0 0 0 512 256z"/><path fill="#eee" d="M512 261.8l-.1 1.5v-1.5zm-.3 7l-.1 1.5v-1.5zm-.4 5.6l-.1 2.2.1-2.2zm-.8-46.3c0 .9.2 1.7.3 2.6l-.3-2.6zm1.1 13.6zm.3 7zm-.7-13.3l.1 2.2-.1-2.2z"/><path fill="#d80027" d="M509.8 222.6l.4 2.6A256 256 0 0 0 75 75l147.6 147.6h287.2z"/><path fill="#6da544" d="M509.8 289.4H222.6L75 437a256 256 0 0 0 435.2-150.3l-.4 2.7z"/><path fill="#eee" d="M510.8 281.3l-.3 2.6c0-.9.2-1.7.3-2.6z"/><path fill="#333" d="M511.3 237.6zm-1.1-12.4zm.6 5.5zM512 256zm-.4 14.3zm-.4 6.3zm-.7 7.3zm1.4-33.7zm-.2-7zm.2 20.1z"/><g fill="#ffda44"><path d="M511.8 244.8H213.2L59.8 91.4c-5 5.3-10.3 12.6-13.6 17.8l146.6 146.7L46.2 402.7c2.9 5.2 9.2 12.8 13.7 17.8L213.2 267h298.6c.2-3.7.2-7.4.2-11a249 249 0 0 0-.2-11.2z"/><path d="M62.2 310.6V289a38.8 38.8 0 0 0 38.8-38.8A27.5 27.5 0 0 0 73.5 223a18.7 18.7 0 0 0-18.7 18.7 12 12 0 0 0 12 12c3.7 0 6.8-3.1 6.8-6.8H95A28.2 28.2 0 0 1 66.8 275c-18.4 0-33.4-15-33.4-33.4 0-22.2 18-40.2 40.1-40.2a49 49 0 0 1 49 49c0 33.1-27 60.2-60.3 60.2z"/></g></svg>