<svg xmlns="http://www.w3.org/2000/svg" viewBox="0 0 512 512"><circle cx="256" cy="256" r="256" fill="#eee"/><path fill="#333" d="M415.4 55.6H96.6a257.3 257.3 0 0 0-59 66.8h436.8a257.4 257.4 0 0 0-59-66.8zM96.6 456.4h318.8a257.3 257.3 0 0 0 59-66.8H37.6a257.4 257.4 0 0 0 59 66.7zM243.5 172l8 11v41.6a34 34 0 0 1-29-33.6l7-11h-25l8 11a44 44 0 0 0 39 43.7v20a64 64 0 0 1-59-63.7l7-11h-25l8 11a74 74 0 0 0 69 73.8v20a94 94 0 0 1-89-93.8l7-11h-25l8 11a104 104 0 0 0 99 103.8V332l-49 11v7h108v-7l-49-11v-37.3a104 104 0 0 0 99-103.7l7-11h-25l8 11a94 94 0 0 1-89 93.8v-20a74 74 0 0 0 69-73.8l7-11h-25l8 11a64 64 0 0 1-59 63.8v-20.1a44 44 0 0 0 39-43.7l7-11h-25l8 11a34 34 0 0 1-29 33.6V183l7-11z"/></svg>