<svg xmlns="http://www.w3.org/2000/svg" viewBox="0 0 512 512"><circle cx="256" cy="256" r="256" fill="#496e2d"/><path fill="#d80027" d="M356.2 256H256v256c30 0 58.6-5.2 85.3-14.6L356.2 256z"/><path fill="#ff9811" d="M426.7 446.8A255.3 255.3 0 0 0 512 256H411.8l14.9 190.8z"/><path fill="#333" d="M341.3 256v241.4a255.9 255.9 0 0 0 85.4-50.6V256h-85.4z"/><path fill="#ff9811" d="M473 167h-66.7a22.3 22.3 0 0 0-44.6 0H295a23 23 0 0 0 23 22.2h-.8c0 12.3 10 22.3 22.3 22.3 0 12.3 10 22.2 22.2 22.2h44.6c12.3 0 22.2-10 22.2-22.2 12.3 0 22.3-10 22.3-22.3h-.8a23 23 0 0 0 23-22.2z"/></svg>