<svg xmlns="http://www.w3.org/2000/svg" viewBox="0 0 512 512"><circle cx="256" cy="256" r="256" fill="#eee"/><path fill="#ffda44" d="M487.5 146.6a256.6 256.6 0 0 0-52.2-73.3L256 55.7 76.7 73.3 75 75l71.6 71.6 109.4 3.3 231.5-3.3zM75 437l2.8 2.8L256 456.3l178.2-16.5c21.6-21 39.6-45.8 52.8-73.3l-331.2-10.3L75 437z"/><path fill="#333" d="M509.5 220l-298-8.5L256 256l-44.5 44.5 297.8-7.3A258 258 0 0 0 512 256a258 258 0 0 0-2.5-36z"/><path fill="#6da544" d="M256 0C186.2 0 122.9 28 76.7 73.3h358.6A255.2 255.2 0 0 0 256 0z"/><path fill="#d80027" d="M220 220h289.5a254.2 254.2 0 0 0-22-73.4H146.6l73.3 73.3zm-74.5 146.5H487a254.2 254.2 0 0 0 22.3-73.3H218.8l-73.3 73.3z"/><path fill="#6da544" d="M256 512c69.3 0 132-27.5 178.2-72.2H77.8A255.1 255.1 0 0 0 256 512z"/><path fill="#333" d="M91.4 60A258 258 0 0 0 75 75l181 181L75 437a257.5 257.5 0 0 0 16.4 15l196-196-196-196z"/><path fill="#d80027" d="M103 189.2l16.5 51h53.6l-43.4 31.6 16.6 51-43.4-31.5-43.4 31.5 16.6-51-43.4-31.6h53.6z"/><path fill="#ffda44" d="M148.5 260.2l-43.2-15.3-3.4-31a16.7 16.7 0 1 0-32.5 7.6l-12 12.1h21.5c0 22.4-16.7 22.4-16.7 44.7l9.2 22.2h55.7l9.3-22.2a22.2 22.2 0 0 0 1.7-6.6c8-3.2 10.4-11.5 10.4-11.5z"/></svg>